# Blender 4.1.1
# www.blender.org
mtllib Item.mtl
o テキスト
v -0.216223 0.035051 -0.099237
v -0.323865 0.152118 -0.101248
v -0.279645 0.152118 -0.101002
v -0.175627 0.039038 -0.099059
v -0.175620 0.152118 -0.100422
v -0.140099 0.152118 -0.100224
v -0.140116 -0.095063 -0.097245
v -0.175637 -0.095063 -0.097443
v -0.175628 0.027078 -0.098915
v -0.301409 -0.095063 -0.098143
v -0.350341 -0.095063 -0.098416
v -0.106753 0.152118 -0.100039
v 0.099848 0.152118 -0.098888
v 0.099845 0.120224 -0.098504
v 0.014306 0.120224 -0.098980
v 0.014291 -0.095063 -0.096385
v -0.021230 -0.095063 -0.096583
v -0.021215 0.120224 -0.099178
v -0.106755 0.120224 -0.099654
v 0.216559 0.153568 -0.098256
v 0.241569 0.153568 -0.098117
v 0.347752 -0.095063 -0.094528
v 0.311506 -0.095063 -0.094730
v 0.280340 -0.022214 -0.095782
v 0.175227 -0.022214 -0.096367
v 0.142239 -0.095063 -0.095673
v 0.105993 -0.095063 -0.095875
v 0.229604 0.099203 -0.097528
v 0.189727 0.009681 -0.096671
v 0.266568 0.009681 -0.096243
v -0.089443 -0.286529 0.036492
v -0.089443 0.286529 0.036492
v -0.089443 -0.286529 -0.036492
v -0.089443 0.286529 -0.036492
v 0.089443 -0.286529 0.036492
v 0.089443 0.286529 0.036492
v 0.089443 -0.286529 -0.036492
v 0.089443 0.286529 -0.036492
v 0.000000 0.263655 -0.107901
v 0.041615 0.263655 -0.105828
v 0.081632 0.263655 -0.099688
v 0.118511 0.263655 -0.089717
v 0.150836 0.263655 -0.076298
v 0.177364 0.263655 -0.059947
v 0.197076 0.263655 -0.041292
v 0.209215 0.263655 -0.021050
v 0.213314 0.263655 0.000000
v 0.209215 0.263655 0.021050
v 0.197076 0.263655 0.041292
v 0.177364 0.263655 0.059947
v 0.150836 0.263655 0.076298
v 0.118511 0.263655 0.089717
v 0.081632 0.263655 0.099688
v 0.041615 0.263655 0.105828
v 0.000000 0.263655 0.107901
v -0.041615 0.263655 0.105828
v -0.081632 0.263655 0.099688
v -0.118511 0.263655 0.089717
v -0.150836 0.263655 0.076298
v -0.177364 0.263655 0.059947
v -0.197076 0.263655 0.041292
v -0.209215 0.263655 0.021050
v -0.213314 0.263655 0.000000
v -0.209215 0.263655 -0.021050
v -0.197076 0.263655 -0.041292
v -0.177364 0.263655 -0.059947
v -0.150836 0.263655 -0.076298
v -0.118511 0.263655 -0.089717
v -0.081632 0.263655 -0.099688
v -0.041615 0.263655 -0.105828
v 0.000000 0.788650 0.000000
vn 0.0056 -0.0121 -0.9999
vn -1.0000 -0.0000 -0.0000
vn -0.0000 -0.0000 -1.0000
vn 1.0000 -0.0000 -0.0000
vn -0.0000 -0.0000 1.0000
vn -0.0000 -1.0000 -0.0000
vn -0.0000 1.0000 -0.0000
vn 0.0487 0.2011 -0.9784
vn 0.1484 0.2067 -0.9671
vn 0.2547 0.2185 -0.9420
vn 0.3724 0.2374 -0.8972
vn 0.5060 0.2647 -0.8209
vn 0.6556 0.3006 -0.6927
vn 0.8063 0.3407 -0.4835
vn 0.9117 0.3705 -0.1775
vn 0.9117 0.3704 0.1775
vn 0.8063 0.3407 0.4835
vn 0.6556 0.3006 0.6927
vn 0.5060 0.2647 0.8209
vn 0.3724 0.2374 0.8972
vn 0.2547 0.2185 0.9420
vn 0.1484 0.2067 0.9671
vn 0.0487 0.2011 0.9784
vn -0.0487 0.2011 0.9784
vn -0.1484 0.2067 0.9671
vn -0.2547 0.2185 0.9420
vn -0.3724 0.2374 0.8972
vn -0.5060 0.2647 0.8209
vn -0.6556 0.3006 0.6927
vn -0.8063 0.3407 0.4835
vn -0.9117 0.3704 0.1775
vn -0.9117 0.3705 -0.1775
vn -0.8063 0.3407 -0.4835
vn -0.6556 0.3006 -0.6927
vn -0.5060 0.2647 -0.8209
vn -0.3724 0.2374 -0.8972
vn -0.2547 0.2185 -0.9420
vn -0.1484 0.2067 -0.9671
vn -0.0487 0.2011 -0.9784
vt 0.489864 0.961824
vt 0.329270 0.961824
vt 0.409567 0.961824
vt 0.248973 0.961824
vt 0.088379 0.961824
vt 0.168676 0.961824
vt 0.008082 0.961824
vt 0.650458 0.961824
vt 0.811051 0.961824
vt 0.570161 0.961824
vt 0.730754 0.961824
vt 0.237502 0.977421
vt 0.008082 0.977421
vt 0.122792 0.977421
vt 0.811051 0.977421
vt 0.352212 0.977421
vt 0.466922 0.977421
vt 0.696342 0.977421
vt 0.581632 0.977421
vt 0.168676 0.993018
vt 0.008082 0.993018
vt 0.088379 0.993018
vt 0.650458 0.993018
vt 0.570161 0.993018
vt 0.811051 0.993018
vt 0.730754 0.993018
vt 0.329270 0.993018
vt 0.409567 0.993018
vt 0.248973 0.993018
vt 0.489864 0.993018
vt 0.476338 0.007701
vt 0.242140 0.241899
vt 0.242140 0.007701
vt 0.476338 0.241899
vt 0.242140 0.476097
vt 0.476338 0.710296
vt 0.242140 0.710296
vt 0.242140 0.944494
vt 0.007942 0.710296
vt 0.007942 0.476097
vt 0.476338 0.476097
vt 0.710537 0.710296
vt 0.666803 0.358734
vt 0.666803 0.183292
vt 0.701030 0.355363
vt 0.733942 0.345380
vt 0.764274 0.329167
vt 0.790860 0.307348
vt 0.812678 0.280762
vt 0.828891 0.250431
vt 0.838875 0.217519
vt 0.842246 0.183292
vt 0.838875 0.149065
vt 0.828891 0.116153
vt 0.812678 0.085821
vt 0.790860 0.059235
vt 0.764274 0.037416
vt 0.733942 0.021204
vt 0.701030 0.011220
vt 0.666803 0.007849
vt 0.632576 0.011220
vt 0.599664 0.021204
vt 0.569332 0.037416
vt 0.542746 0.059235
vt 0.520928 0.085821
vt 0.504715 0.116153
vt 0.494732 0.149065
vt 0.491361 0.183292
vt 0.494732 0.217519
vt 0.504715 0.250431
vt 0.520928 0.280762
vt 0.542746 0.307348
vt 0.569332 0.329167
vt 0.599664 0.345380
vt 0.743275 0.907429
vt 0.763520 0.918250
vt 0.743275 0.712700
vt 0.632576 0.355363
vt 0.476338 0.944494
vt 0.710537 0.476097
vt 0.785487 0.924913
vt 0.808331 0.927163
vt 0.808331 0.692965
vt 0.831176 0.924913
vt 0.831176 0.695215
vt 0.853143 0.918250
vt 0.873388 0.907429
vt 0.853143 0.701879
vt 0.891133 0.892866
vt 0.891133 0.727263
vt 0.905696 0.875121
vt 0.905696 0.745008
vt 0.916517 0.854876
vt 0.923180 0.832909
vt 0.916517 0.765253
vt 0.925431 0.810064
vt 0.923181 0.787220
vt 0.873388 0.712700
vt 0.785487 0.695215
vt 0.763520 0.701879
vt 0.725530 0.727263
vt 0.725530 0.892866
vt 0.710967 0.745008
vt 0.710967 0.875121
vt 0.700146 0.765253
vt 0.693483 0.787220
vt 0.700146 0.854876
vt 0.691232 0.810064
vt 0.693483 0.832909
s 0
usemtl マテリアル.012
f 7/1/1 5/2/1 6/3/1
f 7/1/1 4/4/1 5/2/1
f 4/4/1 2/5/1 3/6/1
f 4/4/1 1/7/1 2/5/1
f 7/1/1 9/8/1 4/4/1
f 9/8/1 1/7/1 4/4/1
f 9/8/1 11/9/1 1/7/1
f 7/1/1 8/10/1 9/8/1
f 10/11/1 11/9/1 9/8/1
f 14/12/1 12/13/1 13/14/1
f 14/12/1 19/15/1 12/13/1
f 15/16/1 19/15/1 14/12/1
f 16/17/1 18/18/1 15/16/1
f 18/18/1 19/15/1 15/16/1
f 16/17/1 17/19/1 18/18/1
f 22/20/1 20/21/1 21/22/1
f 22/20/1 28/23/1 20/21/1
f 28/23/1 27/24/1 20/21/1
f 22/20/1 30/25/1 28/23/1
f 29/26/1 27/24/1 28/23/1
f 22/20/1 24/27/1 30/25/1
f 24/27/1 29/26/1 30/25/1
f 24/27/1 25/28/1 29/26/1
f 25/28/1 27/24/1 29/26/1
f 22/20/1 23/29/1 24/27/1
f 26/30/1 27/24/1 25/28/1
f 32/31/2 33/32/2 31/33/2
f 34/34/3 37/35/3 33/32/3
f 37/35/4 36/36/4 35/37/4
f 36/36/5 31/38/5 35/37/5
f 37/35/6 31/39/6 33/40/6
f 38/41/7 32/42/7 36/36/7
f 39/43/8 71/44/8 40/45/8
f 40/45/9 71/44/9 41/46/9
f 41/46/10 71/44/10 42/47/10
f 42/47/11 71/44/11 43/48/11
f 43/48/12 71/44/12 44/49/12
f 44/49/13 71/44/13 45/50/13
f 45/50/14 71/44/14 46/51/14
f 46/51/15 71/44/15 47/52/15
f 47/52/16 71/44/16 48/53/16
f 48/53/17 71/44/17 49/54/17
f 49/54/18 71/44/18 50/55/18
f 50/55/19 71/44/19 51/56/19
f 51/56/20 71/44/20 52/57/20
f 52/57/21 71/44/21 53/58/21
f 53/58/22 71/44/22 54/59/22
f 54/59/23 71/44/23 55/60/23
f 55/60/24 71/44/24 56/61/24
f 56/61/25 71/44/25 57/62/25
f 57/62/26 71/44/26 58/63/26
f 58/63/27 71/44/27 59/64/27
f 59/64/28 71/44/28 60/65/28
f 60/65/29 71/44/29 61/66/29
f 61/66/30 71/44/30 62/67/30
f 62/67/31 71/44/31 63/68/31
f 63/68/32 71/44/32 64/69/32
f 64/69/33 71/44/33 65/70/33
f 65/70/34 71/44/34 66/71/34
f 66/71/35 71/44/35 67/72/35
f 67/72/36 71/44/36 68/73/36
f 68/73/37 71/44/37 69/74/37
f 68/75/6 69/76/6 58/77/6
f 69/74/38 71/44/38 70/78/38
f 70/78/39 71/44/39 39/43/39
f 32/31/2 34/34/2 33/32/2
f 34/34/3 38/41/3 37/35/3
f 37/35/4 38/41/4 36/36/4
f 36/36/5 32/79/5 31/38/5
f 37/35/6 35/37/6 31/39/6
f 38/41/7 34/80/7 32/42/7
f 70/81/6 39/82/6 55/83/6
f 39/82/6 40/84/6 54/85/6
f 40/84/6 41/86/6 54/85/6
f 41/86/6 42/87/6 53/88/6
f 54/85/6 41/86/6 53/88/6
f 42/87/6 43/89/6 51/90/6
f 43/89/6 44/91/6 50/92/6
f 44/91/6 45/93/6 50/92/6
f 45/93/6 46/94/6 49/95/6
f 50/92/6 45/93/6 49/95/6
f 46/94/6 47/96/6 48/97/6
f 48/97/6 49/95/6 46/94/6
f 50/92/6 51/90/6 43/89/6
f 51/90/6 52/98/6 42/87/6
f 52/98/6 53/88/6 42/87/6
f 54/85/6 55/83/6 39/82/6
f 55/83/6 56/99/6 70/81/6
f 56/99/6 57/100/6 70/81/6
f 57/100/6 58/77/6 69/76/6
f 70/81/6 57/100/6 69/76/6
f 58/77/6 59/101/6 67/102/6
f 59/101/6 60/103/6 66/104/6
f 60/103/6 61/105/6 66/104/6
f 61/105/6 62/106/6 65/107/6
f 66/104/6 61/105/6 65/107/6
f 62/106/6 63/108/6 64/109/6
f 64/109/6 65/107/6 62/106/6
f 66/104/6 67/102/6 59/101/6
f 67/102/6 68/75/6 58/77/6
