# Blender 4.1.1
# www.blender.org
mtllib weakpoint.mtl
o 円錐.001
v -0.003000 0.003962 -0.287243
v 0.054844 0.006963 -0.270018
v 0.105478 0.006906 -0.250769
v 0.145460 0.006894 -0.221427
v 0.179041 0.006932 -0.183964
v 0.211249 0.006911 -0.141398
v 0.247123 0.006913 -0.105843
v 0.254522 0.006930 -0.058376
v 0.256477 0.006892 -0.002594
v 0.259854 0.006947 0.053716
v 0.250046 0.007024 0.107923
v 0.231006 0.006953 0.154423
v 0.197612 0.007012 0.188092
v 0.143621 0.006962 0.215240
v 0.093209 0.006934 0.245676
v 0.051003 0.006973 0.280288
v 0.003281 0.007371 0.283105
v -0.039637 0.011162 0.264515
v -0.078889 0.012180 0.230993
v -0.132719 0.020091 0.197145
v -0.173142 0.021483 0.167691
v -0.208260 0.019045 0.134567
v -0.246071 0.019649 0.094744
v -0.273395 0.027886 0.047879
v -0.293399 0.030642 -0.001158
v -0.270863 0.026538 -0.047909
v -0.233775 0.024059 -0.103645
v -0.209003 0.023940 -0.150606
v -0.189202 0.022424 -0.193432
v -0.150894 0.031207 -0.289460
v -0.126874 0.027822 -0.300468
v -0.071285 0.001832 -0.306718
v 0.000000 0.616478 0.000000
v 0.003224 0.006951 0.283092
v 0.051019 0.006517 0.280321
v 0.093231 0.006479 0.245734
v 0.143657 0.006506 0.215250
v 0.197545 0.006554 0.188145
v 0.230994 0.006497 0.154442
v 0.250051 0.006571 0.107926
v 0.259853 0.006491 0.053747
v 0.256472 0.006435 -0.002578
v 0.254668 0.006475 -0.058364
v 0.246846 0.006456 -0.105701
v 0.211176 0.006454 -0.141347
v 0.179133 0.006476 -0.184031
v 0.145458 0.006439 -0.221410
v 0.105501 0.006449 -0.250757
v 0.054829 0.006506 -0.270027
v -0.003047 0.003519 -0.287257
v -0.071156 0.001645 -0.306668
v -0.126830 0.027740 -0.300481
v -0.150927 0.031101 -0.289436
v -0.189178 0.022413 -0.193482
v -0.208998 0.023939 -0.150618
v -0.233828 0.024051 -0.103556
v -0.270877 0.026425 -0.047894
v -0.293425 0.030452 -0.001122
v -0.273397 0.027787 0.047883
v -0.246059 0.019526 0.094738
v -0.208454 0.018861 0.134545
v -0.173270 0.021310 0.167635
v -0.132793 0.019931 0.197102
v -0.078944 0.012005 0.230948
v -0.039678 0.010870 0.264504
v 0.000000 -0.603067 0.000000
v 0.072730 0.311686 -0.110713
v 0.052927 0.310603 -0.125832
v 0.109225 0.158746 -0.166268
v 0.089840 0.310617 -0.092311
v 0.115503 0.311715 0.077211
v 0.071811 0.311720 0.107620
v 0.125487 0.310621 0.054162
v 0.173469 0.158769 0.115960
v 0.099173 0.310615 0.094395
v 0.107849 0.158776 0.161630
v 0.046778 0.310576 0.123294
v 0.127261 0.311704 -0.029188
v 0.080203 0.290611 0.040152
v 0.128186 0.138759 0.101951
vn 0.2405 0.4112 -0.8793
vn 0.3249 0.4073 -0.8535
vn 0.5428 0.3981 -0.7395
vn 0.6863 0.3874 -0.6156
vn 0.7363 0.3843 -0.5569
vn 0.6516 0.3783 -0.6575
vn 0.9086 0.3930 -0.1418
vn 0.9212 0.3877 -0.0320
vn 0.9202 0.3874 -0.0556
vn 0.9024 0.3990 0.1627
vn 0.8447 0.4079 0.3465
vn 0.6484 0.4085 0.6424
vn 0.4137 0.3883 0.8235
vn 0.4757 0.3904 0.7882
vn 0.5872 0.3782 0.7156
vn 0.0569 0.4211 0.9052
vn -0.3354 0.3956 0.8550
vn -0.6025 0.3524 0.7161
vn -0.4552 0.3691 0.8102
vn -0.5387 0.3701 0.7568
vn -0.6496 0.3754 0.6611
vn -0.6687 0.3774 0.6406
vn -0.7615 0.3955 0.5135
vn -0.8333 0.4166 0.3633
vn -0.8088 0.4059 -0.4255
vn -0.7583 0.3906 -0.5220
vn -0.8120 0.3955 -0.4293
vn -0.8291 0.3934 -0.3973
vn -0.8709 0.3792 -0.3127
vn -0.3072 0.4843 -0.8192
vn -0.0459 -0.9987 -0.0235
vn 0.1026 0.4346 -0.8948
vn 0.2381 0.4114 -0.8798
vn 0.0487 -0.4207 0.9059
vn 0.5865 -0.3784 0.7162
vn 0.4764 -0.3904 0.7878
vn 0.4143 -0.3883 0.8231
vn 0.6476 -0.4084 0.6433
vn 0.8451 -0.4078 0.3456
vn 0.9022 -0.3990 0.1638
vn 0.9203 -0.3875 -0.0548
vn 0.9213 -0.3878 -0.0301
vn 0.9071 -0.3933 -0.1497
vn 0.6543 -0.3785 -0.6547
vn 0.7382 -0.3843 -0.5544
vn 0.6851 -0.3876 -0.6168
vn 0.5430 -0.3982 -0.7394
vn 0.3242 -0.4074 -0.8538
vn 0.2796 -0.4098 -0.8683
vn 0.2602 -0.4122 -0.8732
vn -0.3077 -0.4589 -0.8335
vn -0.4224 -0.4576 -0.7824
vn -0.8500 -0.3723 -0.3726
vn -0.8471 -0.3732 -0.3784
vn -0.8196 -0.3769 -0.4315
vn -0.7794 -0.3737 -0.5029
vn -0.8419 -0.3906 -0.3722
vn -0.8572 -0.3964 0.3287
vn -0.8241 -0.3884 0.4123
vn -0.6797 -0.3654 0.6360
vn -0.6259 -0.3595 0.6921
vn -0.5579 -0.3561 0.7496
vn -0.5342 -0.3564 0.7665
vn 0.4322 0.8524 0.2943
vn -0.6155 -0.3451 0.7086
vn -0.3963 -0.3848 0.8336
vn -0.3827 0.2419 0.8916
vn -0.0157 -0.9865 0.1630
vn -0.0042 -0.9827 0.1851
vn -0.0020 -1.0000 0.0024
vn -0.0025 -1.0000 0.0032
vn -0.0222 -0.9996 0.0163
vn -0.0439 -0.9990 -0.0014
vn -0.0004 -1.0000 0.0004
vn 0.0011 -1.0000 0.0009
vn 0.0025 -1.0000 0.0019
vn 0.0019 -1.0000 -0.0008
vn -0.0389 -0.9977 0.0558
vn -0.4317 -0.8526 -0.2944
vn -0.2150 -0.9611 -0.1737
vn -0.0610 -0.9981 0.0071
vn -0.0291 -0.9995 0.0093
vn -0.0266 -0.9986 -0.0450
vn -0.0057 -1.0000 -0.0039
vn 0.0013 -1.0000 0.0007
vn -0.0354 -0.9842 -0.1737
vn -0.0182 -0.9998 -0.0071
vn -0.1597 -0.9871 0.0097
vn -0.1098 -0.9935 -0.0289
vn -0.2974 -0.9547 0.0056
vn 0.0988 -0.9946 -0.0315
vn 0.0070 -0.9997 -0.0218
vn -0.0329 -0.9995 -0.0021
vn -0.0455 -0.9942 -0.0977
vn -0.0310 -0.9995 0.0059
vn -0.0089 -0.9999 -0.0097
vn 0.0471 0.9938 0.1009
vn 0.0097 0.9999 0.0107
vn 0.0319 0.9995 0.0030
vn 0.0365 0.9843 0.1725
vn 0.0415 0.9991 0.0024
vn 0.0324 0.9995 -0.0041
vn -0.0012 1.0000 -0.0005
vn 0.0056 1.0000 0.0039
vn 0.0280 0.9985 0.0472
vn -0.0996 0.9945 0.0323
vn 0.0186 0.9998 0.0074
vn 0.2982 0.9545 -0.0057
vn -0.0061 0.9997 0.0224
vn 0.1558 0.9877 -0.0099
vn 0.1077 0.9937 0.0293
vn -0.0012 1.0000 -0.0009
vn -0.0025 1.0000 -0.0019
vn -0.0020 1.0000 0.0008
vn 0.0004 1.0000 -0.0005
vn 0.0469 0.9986 0.0240
vn 0.2130 0.9618 0.1720
vn 0.0631 0.9980 -0.0064
vn 0.0297 0.9995 -0.0096
vn 0.0422 0.9986 -0.0312
vn 0.0024 1.0000 -0.0032
vn 0.0399 0.9976 -0.0574
vn 0.0021 1.0000 -0.0025
vn 0.0052 0.9822 -0.1877
vn 0.0188 0.9867 -0.1614
vt 0.345703 0.968902
vt 0.345703 0.683594
vt 0.401364 0.963419
vt 0.400489 0.815859
vt 0.454886 0.947184
vt 0.424957 0.802206
vt 0.464726 0.861724
vt 0.446935 0.784826
vt 0.582928 0.842102
vt 0.547446 0.885337
vt 0.609293 0.792776
vt 0.485616 0.711424
vt 0.625529 0.739254
vt 0.631011 0.683594
vt 0.625529 0.627933
vt 0.477987 0.628800
vt 0.609293 0.574411
vt 0.464316 0.604339
vt 0.523842 0.564565
vt 0.446949 0.582348
vt 0.424957 0.564981
vt 0.464732 0.505455
vt 0.400497 0.551310
vt 0.401364 0.403768
vt 0.454886 0.420004
vt 0.345703 0.398286
vt 0.290042 0.403768
vt 0.236520 0.420004
vt 0.187194 0.446369
vt 0.143960 0.481851
vt 0.108478 0.525085
vt 0.082113 0.574411
vt 0.065877 0.627933
vt 0.060395 0.683594
vt 0.065877 0.739254
vt 0.082113 0.792776
vt 0.108478 0.842102
vt 0.143960 0.885337
vt 0.187194 0.920819
vt 0.236520 0.947184
vt 0.930600 0.250000
vt 0.850336 0.099837
vt 0.649664 0.099837
vt 0.290042 0.963419
vt 0.345703 0.970867
vt 0.401747 0.965347
vt 0.455638 0.948999
vt 0.505303 0.922452
vt 0.548836 0.886726
vt 0.584562 0.843194
vt 0.611109 0.793528
vt 0.627456 0.739638
vt 0.632976 0.683594
vt 0.627456 0.627550
vt 0.611109 0.573659
vt 0.584562 0.523993
vt 0.548836 0.480461
vt 0.505303 0.444735
vt 0.455638 0.418188
vt 0.401747 0.401841
vt 0.345703 0.396321
vt 0.289659 0.401841
vt 0.235768 0.418188
vt 0.186103 0.444735
vt 0.142570 0.480461
vt 0.106844 0.523993
vt 0.080297 0.573659
vt 0.063950 0.627550
vt 0.058430 0.683594
vt 0.063950 0.739638
vt 0.080297 0.793528
vt 0.106844 0.843194
vt 0.142570 0.886726
vt 0.186103 0.922452
vt 0.235768 0.948999
vt 0.714765 0.072863
vt 0.680884 0.083140
vt 0.622291 0.122291
vt 0.289659 0.965347
vt 0.504212 0.920819
vt 0.504212 0.446369
vt 0.547446 0.481851
vt 0.582928 0.525085
vt 0.456980 0.637501
vt 0.495553 0.583467
vt 0.714767 0.427130
vt 0.750000 0.430600
vt 0.622297 0.377703
vt 0.785233 0.427130
vt 0.819113 0.416852
vt 0.850336 0.400163
vt 0.877703 0.377703
vt 0.900163 0.350336
vt 0.599837 0.350336
vt 0.916852 0.319113
vt 0.927130 0.285233
vt 0.927130 0.214767
vt 0.916852 0.180887
vt 0.680887 0.416852
vt 0.649664 0.400163
vt 0.680887 0.083148
vt 0.819113 0.083148
vt 0.900163 0.149664
vt 0.877703 0.122297
vt 0.583148 0.319113
vt 0.569400 0.250000
vt 0.572870 0.285233
vt 0.572870 0.214767
vt 0.583148 0.180887
vt 0.622297 0.122297
vt 0.599837 0.149664
vt 0.750000 0.069400
vt 0.714767 0.072870
vt 0.785233 0.072870
vt 0.714765 0.427137
vt 0.750000 0.430608
vt 0.819116 0.416860
vt 0.785235 0.427137
vt 0.622291 0.377709
vt 0.649660 0.400170
vt 0.583140 0.180884
vt 0.680884 0.416860
vt 0.850340 0.400170
vt 0.599830 0.149660
vt 0.900170 0.149660
vt 0.877709 0.377709
vt 0.916860 0.319116
vt 0.900170 0.350340
vt 0.599830 0.350340
vt 0.572863 0.285235
vt 0.583140 0.319116
vt 0.572863 0.214765
vt 0.569392 0.250000
vt 0.930608 0.250000
vt 0.927137 0.285235
vt 0.927137 0.214765
vt 0.916860 0.180884
vt 0.649660 0.099830
vt 0.785235 0.072863
vt 0.877709 0.122291
vt 0.850340 0.099830
vt 0.819116 0.083140
vt 0.750000 0.069392
s 0
usemtl マテリアル.001
f 1/1/1 33/2/1 2/3/1
f 2/3/2 68/4/2 3/5/2
f 68/4/3 67/6/3 69/7/3
f 67/6/4 70/8/4 69/7/4
f 70/8/5 6/9/5 5/10/5
f 6/9/6 33/2/6 7/11/6
f 7/11/7 78/12/7 8/13/7
f 78/12/8 9/14/8 8/13/8
f 9/14/9 33/2/9 10/15/9
f 10/15/10 73/16/10 11/17/10
f 73/16/11 71/18/11 74/19/11
f 71/18/12 75/20/12 74/19/12
f 75/20/13 72/21/13 76/22/13
f 72/21/14 77/23/14 76/22/14
f 77/23/15 16/24/15 15/25/15
f 16/24/16 33/2/16 17/26/16
f 17/26/17 33/2/17 18/27/17
f 18/27/18 33/2/18 19/28/18
f 19/28/19 33/2/19 20/29/19
f 20/29/20 33/2/20 21/30/20
f 21/30/21 33/2/21 22/31/21
f 22/31/22 33/2/22 23/32/22
f 23/32/23 33/2/23 24/33/23
f 24/33/24 33/2/24 25/34/24
f 25/34/25 33/2/25 26/35/25
f 26/35/26 33/2/26 27/36/26
f 27/36/27 33/2/27 28/37/27
f 28/37/28 33/2/28 29/38/28
f 29/38/29 33/2/29 30/39/29
f 30/39/30 33/2/30 31/40/30
f 9/41/31 14/42/31 20/43/31
f 31/40/32 33/2/32 32/44/32
f 32/44/33 33/2/33 1/1/33
f 34/45/34 66/2/34 35/46/34
f 35/46/35 66/2/35 36/47/35
f 36/47/36 66/2/36 37/48/36
f 37/48/37 66/2/37 38/49/37
f 38/49/38 66/2/38 39/50/38
f 39/50/39 66/2/39 40/51/39
f 40/51/40 66/2/40 41/52/40
f 41/52/41 66/2/41 42/53/41
f 42/53/42 66/2/42 43/54/42
f 43/54/43 66/2/43 44/55/43
f 44/55/44 66/2/44 45/56/44
f 45/56/45 66/2/45 46/57/45
f 46/57/46 66/2/46 47/58/46
f 47/58/47 66/2/47 48/59/47
f 48/59/48 66/2/48 49/60/48
f 49/60/49 66/2/49 50/61/49
f 50/61/50 66/2/50 51/62/50
f 51/62/51 66/2/51 52/63/51
f 52/63/52 66/2/52 53/64/52
f 53/64/53 66/2/53 54/65/53
f 54/65/54 66/2/54 55/66/54
f 55/66/55 66/2/55 56/67/55
f 56/67/56 66/2/56 57/68/56
f 57/68/57 66/2/57 58/69/57
f 58/69/58 66/2/58 59/70/58
f 59/70/59 66/2/59 60/71/59
f 60/71/60 66/2/60 61/72/60
f 61/72/61 66/2/61 62/73/61
f 62/73/62 66/2/62 63/74/62
f 63/74/63 66/2/63 64/75/63
f 51/76/64 52/77/64 54/78/64
f 64/75/65 66/2/65 65/79/65
f 65/79/66 66/2/66 34/45/66
f 69/7/4 5/10/4 4/80/4
f 3/5/3 69/7/3 4/80/3
f 76/22/14 15/25/14 14/81/14
f 13/82/13 76/22/13 14/81/13
f 74/19/12 13/82/12 12/83/12
f 11/17/11 74/19/11 12/83/11
f 73/84/67 80/85/67 74/85/67
f 2/3/2 33/2/2 68/4/2
f 68/4/3 33/2/3 67/6/3
f 67/6/4 33/2/4 70/8/4
f 70/8/5 33/2/5 6/9/5
f 7/11/7 33/2/7 78/12/7
f 78/12/8 33/2/8 9/14/8
f 10/15/10 33/2/10 73/16/10
f 73/16/11 33/2/11 71/18/11
f 71/18/12 33/2/12 75/20/12
f 75/20/13 33/2/13 72/21/13
f 72/21/14 33/2/14 77/23/14
f 77/23/15 33/2/15 16/24/15
f 32/86/68 1/87/68 29/88/68
f 1/87/69 2/89/69 29/88/69
f 2/89/70 3/90/70 4/91/70
f 4/91/71 5/92/71 2/89/71
f 5/92/72 6/93/72 20/43/72
f 28/94/73 5/92/73 20/43/73
f 6/93/74 7/95/74 8/96/74
f 9/41/75 10/97/75 14/42/75
f 10/97/76 11/98/76 14/42/76
f 6/93/77 8/96/77 9/41/77
f 5/92/78 28/94/78 2/89/78
f 31/99/79 32/86/79 29/88/79
f 29/88/80 30/100/80 31/99/80
f 28/94/81 29/88/81 2/89/81
f 6/93/82 9/41/82 20/43/82
f 19/101/83 14/42/83 15/102/83
f 11/98/84 12/103/84 13/104/84
f 11/98/85 13/104/85 14/42/85
f 14/42/86 19/101/86 20/43/86
f 28/94/87 20/43/87 27/105/87
f 25/106/88 26/107/88 24/108/88
f 26/107/89 27/105/89 23/109/89
f 23/109/90 24/108/90 26/107/90
f 21/110/91 22/111/91 27/105/91
f 22/111/92 23/109/92 27/105/92
f 20/43/93 21/110/93 27/105/93
f 17/112/94 18/113/94 15/102/94
f 18/113/95 19/101/95 15/102/95
f 15/102/96 16/114/96 17/112/96
f 65/115/97 34/116/97 36/117/97
f 34/116/98 35/118/98 36/117/98
f 62/119/99 63/120/99 56/121/99
f 63/120/100 64/122/100 37/123/100
f 55/124/101 63/120/101 45/125/101
f 64/122/102 65/115/102 36/117/102
f 37/123/103 38/126/103 40/127/103
f 38/126/104 39/128/104 40/127/104
f 64/122/105 36/117/105 37/123/105
f 61/129/106 62/119/106 56/121/106
f 63/120/107 55/124/107 56/121/107
f 59/130/108 60/131/108 57/132/108
f 60/131/109 61/129/109 56/121/109
f 57/132/110 58/133/110 59/130/110
f 56/121/111 57/132/111 60/131/111
f 42/134/112 37/123/112 41/135/112
f 40/127/113 41/135/113 37/123/113
f 42/134/114 43/136/114 45/125/114
f 43/136/115 44/137/115 45/125/115
f 37/123/116 42/134/116 63/120/116
f 52/77/117 53/138/117 54/78/117
f 54/78/118 55/124/118 49/139/118
f 63/120/119 42/134/119 45/125/119
f 45/125/120 46/140/120 55/124/120
f 46/140/121 47/141/121 49/139/121
f 46/140/122 49/139/122 55/124/122
f 47/141/123 48/142/123 49/139/123
f 49/139/124 50/143/124 54/78/124
f 50/143/125 51/76/125 54/78/125
f 69/7/4 70/8/4 5/10/4
f 3/5/3 68/4/3 69/7/3
f 76/22/14 77/23/14 15/25/14
f 13/82/13 75/20/13 76/22/13
f 74/19/12 75/20/12 13/82/12
f 11/17/11 73/16/11 74/19/11
f 73/84/67 79/84/67 80/85/67
