# Blender 4.1.1
# www.blender.org
mtllib Item2.mtl
o テキスト
v 0.081607 0.672164 -0.324871
v -0.000590 -0.004860 -0.322407
v -0.000633 -0.005211 -0.420406
v 0.034922 0.287636 -0.421472
v 0.034877 0.287270 -0.523471
v 0.035068 0.288837 -0.561194
v 0.035656 0.293681 -0.595393
v 0.036616 0.301591 -0.626118
v 0.037923 0.312358 -0.653415
v 0.039552 0.325770 -0.677334
v 0.041476 0.341617 -0.697920
v 0.043670 0.359688 -0.715224
v 0.046108 0.379774 -0.729291
v 0.048766 0.401664 -0.740170
v 0.051617 0.425147 -0.747910
v 0.054636 0.450013 -0.752557
v 0.057797 0.476052 -0.754160
v 0.060997 0.502407 -0.752832
v 0.064069 0.527712 -0.748621
v 0.066985 0.551730 -0.741482
v 0.069717 0.574229 -0.731369
v 0.072236 0.594974 -0.718236
v 0.074513 0.613730 -0.702036
v 0.076520 0.630264 -0.682724
v 0.078229 0.644342 -0.660254
v 0.079612 0.655728 -0.634579
v 0.080639 0.664190 -0.605654
v 0.081283 0.669492 -0.573433
v 0.081515 0.671400 -0.537870
v 0.070959 0.584455 -0.422552
v 0.070908 0.584042 -0.537552
v 0.070768 0.582884 -0.558526
v 0.070381 0.579700 -0.577031
v 0.069773 0.574691 -0.593190
v 0.068968 0.568056 -0.607123
v 0.067989 0.559995 -0.618955
v 0.066861 0.550707 -0.628806
v 0.065609 0.540392 -0.636799
v 0.064256 0.529248 -0.643056
v 0.062827 0.517476 -0.647701
v 0.061345 0.505276 -0.650853
v 0.059836 0.492845 -0.652637
v 0.058323 0.480385 -0.653175
v 0.056349 0.464118 -0.652149
v 0.054524 0.449092 -0.649242
v 0.052855 0.435340 -0.644527
v 0.051344 0.422898 -0.638077
v 0.049997 0.411800 -0.629965
v 0.048816 0.402078 -0.620265
v 0.047807 0.393769 -0.609049
v 0.046974 0.386906 -0.596390
v 0.046321 0.381522 -0.582362
v 0.045851 0.377654 -0.567037
v 0.045569 0.375333 -0.550488
v 0.045480 0.374596 -0.532789
v 0.045528 0.374994 -0.421790
v 0.081913 0.674682 0.377125
v 0.081956 0.675034 0.475124
v 0.046160 0.380200 0.476197
v 0.046326 0.381571 0.858195
v 0.082122 0.676404 0.857122
v 0.082165 0.676755 0.955121
v -0.000033 -0.000269 0.957585
v -0.000075 -0.000620 0.859586
v 0.035720 0.294213 0.858513
v 0.035554 0.292843 0.476515
v -0.000242 -0.001991 0.477588
v -0.000284 -0.002342 0.379589
vn 0.9927 -0.1205 -0.0000
vn 0.9927 -0.1206 -0.0000
vn 0.9927 -0.1207 -0.0000
vn 0.9927 -0.1204 -0.0000
vn 0.9927 -0.1203 -0.0000
vt 0.018182 0.000000
vt 0.527273 0.000000
vt 0.000000 0.000000
vt 0.509091 0.000000
vt 0.490909 0.000000
vt 0.472727 0.000000
vt 0.454545 0.000000
vt 0.436364 0.000000
vt 0.418182 0.000000
vt 0.400000 0.000000
vt 0.381818 0.000000
vt 0.545455 0.000000
vt 0.363636 0.000000
vt 1.000000 0.000000
vt 0.563636 0.000000
vt 0.581818 0.000000
vt 0.600000 0.000000
vt 0.345455 0.000000
vt 0.618182 0.000000
vt 0.636364 0.000000
vt 0.654545 0.000000
vt 0.327273 0.000000
vt 0.672727 0.000000
vt 0.690909 0.000000
vt 0.709091 0.000000
vt 0.309091 0.000000
vt 0.727273 0.000000
vt 0.745455 0.000000
vt 0.290909 0.000000
vt 0.763636 0.000000
vt 0.781818 0.000000
vt 0.272727 0.000000
vt 0.800000 0.000000
vt 0.254545 0.000000
vt 0.818182 0.000000
vt 0.836364 0.000000
vt 0.236364 0.000000
vt 0.854545 0.000000
vt 0.872727 0.000000
vt 0.218182 0.000000
vt 0.890909 0.000000
vt 0.909091 0.000000
vt 0.927273 0.000000
vt 0.945455 0.000000
vt 0.200000 0.000000
vt 0.963636 0.000000
vt 0.981818 0.000000
vt 0.054545 0.000000
vt 0.181818 0.000000
vt 0.163636 0.000000
vt 0.145455 0.000000
vt 0.127273 0.000000
vt 0.109091 0.000000
vt 0.090909 0.000000
vt 0.072727 0.000000
vt 0.036364 0.000000
s 0
usemtl マテリアル.002
f 2/1/1 30/2/1 1/3/1
f 30/2/1 29/4/1 1/3/1
f 30/2/1 28/5/1 29/4/1
f 30/2/1 27/6/1 28/5/1
f 30/2/1 26/7/1 27/6/1
f 30/2/2 25/8/2 26/7/2
f 30/2/1 24/9/1 25/8/1
f 30/2/1 23/10/1 24/9/1
f 30/2/1 22/11/1 23/10/1
f 30/2/3 31/12/3 22/11/3
f 31/12/1 21/13/1 22/11/1
f 2/1/1 56/14/1 30/2/1
f 32/15/1 21/13/1 31/12/1
f 33/16/3 21/13/3 32/15/3
f 34/17/1 21/13/1 33/16/1
f 34/17/1 20/18/1 21/13/1
f 35/19/4 20/18/4 34/17/4
f 36/20/2 20/18/2 35/19/2
f 37/21/2 20/18/2 36/20/2
f 37/21/1 19/22/1 20/18/1
f 38/23/1 19/22/1 37/21/1
f 39/24/1 19/22/1 38/23/1
f 40/25/1 19/22/1 39/24/1
f 40/25/1 18/26/1 19/22/1
f 41/27/2 18/26/2 40/25/2
f 42/28/1 18/26/1 41/27/1
f 42/28/1 17/29/1 18/26/1
f 43/30/1 17/29/1 42/28/1
f 44/31/1 17/29/1 43/30/1
f 44/31/1 16/32/1 17/29/1
f 45/33/2 16/32/2 44/31/2
f 45/33/1 15/34/1 16/32/1
f 46/35/1 15/34/1 45/33/1
f 47/36/2 15/34/2 46/35/2
f 47/36/1 14/37/1 15/34/1
f 48/38/1 14/37/1 47/36/1
f 49/39/2 14/37/2 48/38/2
f 49/39/1 13/40/1 14/37/1
f 50/41/1 13/40/1 49/39/1
f 51/42/1 13/40/1 50/41/1
f 52/43/4 13/40/4 51/42/4
f 53/44/2 13/40/2 52/43/2
f 53/44/1 12/45/1 13/40/1
f 54/46/2 12/45/2 53/44/2
f 55/47/5 12/45/5 54/46/5
f 2/1/1 4/48/1 56/14/1
f 4/48/1 55/47/1 56/14/1
f 4/48/1 12/45/1 55/47/1
f 4/48/1 11/49/1 12/45/1
f 4/48/1 10/50/1 11/49/1
f 4/48/2 9/51/2 10/50/2
f 4/48/1 8/52/1 9/51/1
f 4/48/1 7/53/1 8/52/1
f 4/48/1 6/54/1 7/53/1
f 4/48/1 5/55/1 6/54/1
f 2/1/1 3/56/1 4/48/1
f 63/12/1 61/13/1 62/7/1
f 63/12/1 60/32/1 61/13/1
f 59/49/1 57/3/1 58/54/1
f 59/49/1 68/14/1 57/3/1
f 63/12/1 65/27/1 60/32/1
f 65/27/1 59/49/1 60/32/1
f 65/27/1 66/35/1 59/49/1
f 66/35/1 68/14/1 59/49/1
f 63/12/1 64/20/1 65/27/1
f 67/42/1 68/14/1 66/35/1
o 円錐
v 0.000000 0.982901 -0.446484
v 0.087105 0.982901 -0.437905
v 0.170862 0.982901 -0.412498
v 0.248053 0.982901 -0.371238
v 0.315712 0.982901 -0.315712
v 0.371238 0.982901 -0.248053
v 0.412498 0.982901 -0.170862
v 0.437905 0.982901 -0.087105
v 0.446484 0.982901 -0.000000
v 0.437905 0.982901 0.087105
v 0.412498 0.982901 0.170862
v 0.371238 0.982901 0.248053
v 0.315712 0.982901 0.315712
v 0.248053 0.982901 0.371238
v 0.170862 0.982901 0.412498
v 0.087105 0.982901 0.437905
v 0.000000 0.982901 0.446484
v -0.087105 0.982901 0.437905
v -0.170862 0.982901 0.412498
v -0.248053 0.982901 0.371238
v -0.315712 0.982901 0.315712
v -0.371238 0.982901 0.248053
v -0.412498 0.982901 0.170862
v -0.437905 0.982901 0.087105
v -0.446484 0.982901 -0.000000
v -0.437905 0.982901 -0.087105
v -0.412498 0.982901 -0.170862
v -0.371238 0.982901 -0.248053
v -0.315712 0.982901 -0.315712
v -0.248053 0.982901 -0.371238
v -0.170862 0.982901 -0.412498
v -0.087105 0.982901 -0.437905
v 0.000000 1.875869 -0.000000
v 0.000000 -0.011159 -0.113950
v 0.000000 0.988779 -0.113950
v 0.022231 -0.011159 -0.111761
v 0.022231 0.988779 -0.111761
v 0.043607 -0.011159 -0.105276
v 0.043607 0.988779 -0.105276
v 0.063307 -0.011159 -0.094746
v 0.063307 0.988779 -0.094746
v 0.080575 -0.011159 -0.080575
v 0.080575 0.988779 -0.080575
v 0.094746 -0.011159 -0.063307
v 0.094746 0.988779 -0.063307
v 0.105276 -0.011159 -0.043607
v 0.105276 0.988779 -0.043607
v 0.111761 -0.011159 -0.022231
v 0.111761 0.988779 -0.022231
v 0.113950 -0.011159 0.000000
v 0.113950 0.988779 -0.000000
v 0.111761 -0.011159 0.022231
v 0.111761 0.988779 0.022231
v 0.105276 -0.011159 0.043607
v 0.105276 0.988779 0.043607
v 0.094746 -0.011159 0.063307
v 0.094746 0.988779 0.063307
v 0.080575 -0.011159 0.080575
v 0.080575 0.988779 0.080575
v 0.063307 -0.011159 0.094746
v 0.063307 0.988779 0.094746
v 0.043607 -0.011159 0.105276
v 0.043607 0.988779 0.105276
v 0.022231 -0.011159 0.111761
v 0.022231 0.988779 0.111761
v 0.000000 -0.011159 0.113950
v 0.000000 0.988779 0.113950
v -0.022231 -0.011159 0.111761
v -0.022231 0.988779 0.111761
v -0.043607 -0.011159 0.105276
v -0.043607 0.988779 0.105276
v -0.063307 -0.011159 0.094746
v -0.063307 0.988779 0.094746
v -0.080575 -0.011159 0.080575
v -0.080575 0.988779 0.080575
v -0.094746 -0.011159 0.063307
v -0.094746 0.988779 0.063307
v -0.105276 -0.011159 0.043607
v -0.105276 0.988779 0.043607
v -0.111761 -0.011159 0.022231
v -0.111761 0.988779 0.022231
v -0.113950 -0.011159 0.000000
v -0.113950 0.988779 -0.000000
v -0.111761 -0.011159 -0.022231
v -0.111761 0.988779 -0.022231
v -0.105276 -0.011159 -0.043607
v -0.105276 0.988779 -0.043607
v -0.094746 -0.011159 -0.063307
v -0.094746 0.988779 -0.063307
v -0.080575 -0.011159 -0.080575
v -0.080575 0.988779 -0.080575
v -0.063307 -0.011159 -0.094746
v -0.063307 0.988779 -0.094746
v -0.043607 -0.011159 -0.105276
v -0.043607 0.988779 -0.105276
v -0.022231 -0.011159 -0.111761
v -0.022231 0.988779 -0.111761
vn 0.0878 0.4455 -0.8910
vn 0.2599 0.4455 -0.8567
vn 0.4220 0.4455 -0.7896
vn 0.5680 0.4455 -0.6921
vn 0.6921 0.4455 -0.5680
vn 0.7896 0.4455 -0.4220
vn 0.8567 0.4455 -0.2599
vn 0.8910 0.4455 -0.0878
vn 0.8910 0.4455 0.0878
vn 0.8567 0.4455 0.2599
vn 0.7896 0.4455 0.4220
vn 0.6921 0.4455 0.5680
vn 0.5680 0.4455 0.6921
vn 0.4220 0.4455 0.7896
vn 0.2599 0.4455 0.8567
vn 0.0878 0.4455 0.8910
vn -0.0878 0.4455 0.8910
vn -0.2599 0.4455 0.8567
vn -0.4220 0.4455 0.7896
vn -0.5680 0.4455 0.6921
vn -0.6921 0.4455 0.5680
vn -0.7896 0.4455 0.4220
vn -0.8567 0.4455 0.2599
vn -0.8910 0.4455 0.0878
vn -0.8910 0.4455 -0.0878
vn -0.8567 0.4455 -0.2599
vn -0.7896 0.4455 -0.4220
vn -0.6921 0.4455 -0.5680
vn -0.5680 0.4455 -0.6921
vn -0.4220 0.4455 -0.7896
vn -0.0000 -1.0000 -0.0000
vn -0.2599 0.4455 -0.8567
vn -0.0878 0.4455 -0.8910
vn 0.0980 -0.0000 -0.9952
vn 0.2903 -0.0000 -0.9569
vn 0.4714 -0.0000 -0.8819
vn 0.6344 -0.0000 -0.7730
vn 0.7730 -0.0000 -0.6344
vn 0.8819 -0.0000 -0.4714
vn 0.9569 -0.0000 -0.2903
vn 0.9952 -0.0000 -0.0980
vn 0.9952 -0.0000 0.0980
vn 0.9569 -0.0000 0.2903
vn 0.8819 -0.0000 0.4714
vn 0.7730 -0.0000 0.6344
vn 0.6344 -0.0000 0.7730
vn 0.4714 -0.0000 0.8819
vn 0.2903 -0.0000 0.9569
vn 0.0980 -0.0000 0.9952
vn -0.0980 -0.0000 0.9952
vn -0.2903 -0.0000 0.9569
vn -0.4714 -0.0000 0.8819
vn -0.6344 -0.0000 0.7730
vn -0.7730 -0.0000 0.6344
vn -0.8819 -0.0000 0.4714
vn -0.9569 -0.0000 0.2903
vn -0.9952 -0.0000 0.0980
vn -0.9952 -0.0000 -0.0980
vn -0.9569 -0.0000 -0.2903
vn -0.8819 -0.0000 -0.4714
vn -0.7730 -0.0000 -0.6344
vn -0.6344 -0.0000 -0.7730
vn -0.4714 -0.0000 -0.8819
vn -0.0000 1.0000 -0.0000
vn -0.2903 -0.0000 -0.9569
vn -0.0980 -0.0000 -0.9952
vt 0.490856 0.067059
vt 0.299828 0.299828
vt 0.441774 0.034264
vt 0.387238 0.011675
vt 0.329343 0.000158
vt 0.270313 0.000158
vt 0.212417 0.011675
vt 0.157881 0.034264
vt 0.108800 0.067059
vt 0.067059 0.108800
vt 0.034264 0.157881
vt 0.011675 0.212417
vt 0.000158 0.270313
vt 0.000158 0.329342
vt 0.011675 0.387238
vt 0.034264 0.441774
vt 0.067059 0.490856
vt 0.108800 0.532596
vt 0.157881 0.565391
vt 0.212417 0.587981
vt 0.270313 0.599497
vt 0.329342 0.599497
vt 0.387238 0.587981
vt 0.441774 0.565391
vt 0.490856 0.532596
vt 0.532596 0.490856
vt 0.565391 0.441774
vt 0.587981 0.387238
vt 0.599497 0.329343
vt 0.599497 0.270313
vt 0.587981 0.212417
vt 0.565391 0.157881
vt 0.180473 0.599814
vt 0.000158 0.819527
vt 0.219872 0.999842
vt 0.532596 0.108800
vt 0.868918 0.000158
vt 0.599814 0.016977
vt 0.599814 0.000158
vt 0.868918 0.016977
vt 0.599814 0.033796
vt 0.868918 0.033796
vt 0.599814 0.050615
vt 0.868918 0.050615
vt 0.599814 0.067435
vt 0.868918 0.067434
vt 0.599814 0.084254
vt 0.868918 0.084254
vt 0.599814 0.101073
vt 0.868918 0.101073
vt 0.599814 0.117892
vt 0.868918 0.117892
vt 0.599814 0.134711
vt 0.868918 0.134711
vt 0.599814 0.151530
vt 0.868918 0.151530
vt 0.599814 0.168349
vt 0.868918 0.168349
vt 0.599814 0.185168
vt 0.868918 0.185168
vt 0.599814 0.201987
vt 0.868918 0.201987
vt 0.599814 0.218806
vt 0.868918 0.218806
vt 0.599814 0.235625
vt 0.868918 0.235625
vt 0.599814 0.252444
vt 0.868918 0.252444
vt 0.599814 0.269263
vt 0.868918 0.269263
vt 0.599814 0.286082
vt 0.868918 0.286082
vt 0.599814 0.302901
vt 0.868918 0.302901
vt 0.599814 0.319720
vt 0.868918 0.319720
vt 0.599814 0.336539
vt 0.868918 0.336539
vt 0.599814 0.353358
vt 0.868918 0.353358
vt 0.599814 0.370177
vt 0.868918 0.370177
vt 0.599814 0.386996
vt 0.868918 0.386996
vt 0.599814 0.403815
vt 0.868918 0.403815
vt 0.599814 0.420634
vt 0.868918 0.420634
vt 0.599814 0.437453
vt 0.868918 0.437453
vt 0.599814 0.454272
vt 0.868918 0.454272
vt 0.599814 0.471091
vt 0.868918 0.471091
vt 0.599814 0.487910
vt 0.868918 0.487910
vt 0.599814 0.504729
vt 0.635971 0.741227
vt 0.601775 0.677252
vt 0.665751 0.643056
vt 0.868918 0.504729
vt 0.599814 0.521548
vt 0.868918 0.521548
vt 0.599814 0.538367
vt 0.599814 0.594758
vt 0.618320 0.629381
vt 0.655888 0.640778
vt 0.258514 0.992155
vt 0.294915 0.977078
vt 0.327674 0.955189
vt 0.355533 0.927329
vt 0.377423 0.894570
vt 0.392500 0.858170
vt 0.400186 0.819527
vt 0.400186 0.780128
vt 0.392500 0.741486
vt 0.377423 0.705086
vt 0.355533 0.672326
vt 0.327674 0.644467
vt 0.294915 0.622578
vt 0.258514 0.607500
vt 0.219872 0.599814
vt 0.141830 0.607500
vt 0.105430 0.622578
vt 0.072671 0.644467
vt 0.044811 0.672326
vt 0.022922 0.705086
vt 0.007845 0.741486
vt 0.000158 0.780128
vt 0.007845 0.858170
vt 0.022922 0.894570
vt 0.044811 0.927329
vt 0.072671 0.955189
vt 0.105430 0.977078
vt 0.141830 0.992155
vt 0.180473 0.999842
vt 0.675040 0.646904
vt 0.683401 0.652491
vt 0.690511 0.659601
vt 0.696098 0.667962
vt 0.699946 0.677252
vt 0.701908 0.687114
vt 0.701908 0.697169
vt 0.699946 0.707031
vt 0.696098 0.716321
vt 0.690511 0.724682
vt 0.683401 0.731792
vt 0.675040 0.737379
vt 0.665751 0.741227
vt 0.655888 0.743188
vt 0.645833 0.743188
vt 0.626681 0.737379
vt 0.618320 0.731792
vt 0.611210 0.724682
vt 0.605623 0.716321
vt 0.601775 0.707031
vt 0.599814 0.697169
vt 0.599814 0.687114
vt 0.605623 0.667962
vt 0.611210 0.659601
vt 0.618320 0.652491
vt 0.626681 0.646904
vt 0.635971 0.643056
vt 0.645833 0.641094
vt 0.655888 0.641094
vt 0.868918 0.538367
vt 0.665751 0.638816
vt 0.675040 0.634968
vt 0.683401 0.629381
vt 0.690511 0.622271
vt 0.696098 0.613910
vt 0.699946 0.604621
vt 0.701908 0.594758
vt 0.701908 0.584703
vt 0.699946 0.574841
vt 0.696098 0.565551
vt 0.690511 0.557190
vt 0.683401 0.550080
vt 0.675040 0.544494
vt 0.665751 0.540646
vt 0.655888 0.538684
vt 0.645833 0.538684
vt 0.635971 0.540646
vt 0.626681 0.544494
vt 0.618320 0.550080
vt 0.611210 0.557190
vt 0.605624 0.565551
vt 0.601776 0.574841
vt 0.599814 0.584703
vt 0.601776 0.604621
vt 0.605624 0.613910
vt 0.611210 0.622271
vt 0.626681 0.634968
vt 0.635971 0.638816
vt 0.645833 0.640778
s 0
usemtl マテリアル.003
f 69/57/6 101/58/6 70/59/6
f 70/59/7 101/58/7 71/60/7
f 71/60/8 101/58/8 72/61/8
f 72/61/9 101/58/9 73/62/9
f 73/62/10 101/58/10 74/63/10
f 74/63/11 101/58/11 75/64/11
f 75/64/12 101/58/12 76/65/12
f 76/65/13 101/58/13 77/66/13
f 77/66/14 101/58/14 78/67/14
f 78/67/15 101/58/15 79/68/15
f 79/68/16 101/58/16 80/69/16
f 80/69/17 101/58/17 81/70/17
f 81/70/18 101/58/18 82/71/18
f 82/71/19 101/58/19 83/72/19
f 83/72/20 101/58/20 84/73/20
f 84/73/21 101/58/21 85/74/21
f 85/74/22 101/58/22 86/75/22
f 86/75/23 101/58/23 87/76/23
f 87/76/24 101/58/24 88/77/24
f 88/77/25 101/58/25 89/78/25
f 89/78/26 101/58/26 90/79/26
f 90/79/27 101/58/27 91/80/27
f 91/80/28 101/58/28 92/81/28
f 92/81/29 101/58/29 93/82/29
f 93/82/30 101/58/30 94/83/30
f 94/83/31 101/58/31 95/84/31
f 95/84/32 101/58/32 96/85/32
f 96/85/33 101/58/33 97/86/33
f 97/86/34 101/58/34 98/87/34
f 98/87/35 101/58/35 99/88/35
f 84/89/36 92/90/36 100/91/36
f 99/88/37 101/58/37 100/92/37
f 100/92/38 101/58/38 69/57/38
f 103/93/39 104/94/39 102/95/39
f 105/96/40 106/97/40 104/94/40
f 107/98/41 108/99/41 106/97/41
f 109/100/42 110/101/42 108/99/42
f 111/102/43 112/103/43 110/101/43
f 113/104/44 114/105/44 112/103/44
f 115/106/45 116/107/45 114/105/45
f 117/108/46 118/109/46 116/107/46
f 119/110/47 120/111/47 118/109/47
f 121/112/48 122/113/48 120/111/48
f 123/114/49 124/115/49 122/113/49
f 125/116/50 126/117/50 124/115/50
f 127/118/51 128/119/51 126/117/51
f 129/120/52 130/121/52 128/119/52
f 131/122/53 132/123/53 130/121/53
f 133/124/54 134/125/54 132/123/54
f 135/126/55 136/127/55 134/125/55
f 137/128/56 138/129/56 136/127/56
f 139/130/57 140/131/57 138/129/57
f 141/132/58 142/133/58 140/131/58
f 143/134/59 144/135/59 142/133/59
f 145/136/60 146/137/60 144/135/60
f 147/138/61 148/139/61 146/137/61
f 149/140/62 150/141/62 148/139/62
f 151/142/63 152/143/63 150/141/63
f 153/144/64 154/145/64 152/143/64
f 155/146/65 156/147/65 154/145/65
f 157/148/66 158/149/66 156/147/66
f 159/150/67 160/151/67 158/149/67
f 161/152/68 162/153/68 160/151/68
f 139/154/69 123/155/69 107/156/69
f 163/157/70 164/158/70 162/153/70
f 165/159/71 102/160/71 164/158/71
f 148/161/36 156/162/36 164/163/36
f 100/91/36 69/164/36 70/165/36
f 70/165/36 71/166/36 72/167/36
f 72/167/36 73/168/36 74/169/36
f 74/169/36 75/170/36 76/171/36
f 76/171/36 77/172/36 78/173/36
f 78/173/36 79/174/36 80/175/36
f 80/175/36 81/176/36 82/177/36
f 82/177/36 83/178/36 84/89/36
f 84/89/36 85/179/36 86/180/36
f 86/180/36 87/181/36 88/182/36
f 88/182/36 89/183/36 90/184/36
f 90/184/36 91/185/36 92/90/36
f 92/90/36 93/186/36 94/187/36
f 94/187/36 95/188/36 96/189/36
f 96/189/36 97/190/36 98/191/36
f 98/191/36 99/192/36 100/91/36
f 100/91/36 70/165/36 76/171/36
f 70/165/36 72/167/36 76/171/36
f 72/167/36 74/169/36 76/171/36
f 76/171/36 78/173/36 84/89/36
f 78/173/36 80/175/36 84/89/36
f 80/175/36 82/177/36 84/89/36
f 84/89/36 86/180/36 92/90/36
f 86/180/36 88/182/36 92/90/36
f 88/182/36 90/184/36 92/90/36
f 92/90/36 94/187/36 100/91/36
f 94/187/36 96/189/36 100/91/36
f 96/189/36 98/191/36 100/91/36
f 100/91/36 76/171/36 84/89/36
f 103/93/39 105/96/39 104/94/39
f 105/96/40 107/98/40 106/97/40
f 107/98/41 109/100/41 108/99/41
f 109/100/42 111/102/42 110/101/42
f 111/102/43 113/104/43 112/103/43
f 113/104/44 115/106/44 114/105/44
f 115/106/45 117/108/45 116/107/45
f 117/108/46 119/110/46 118/109/46
f 119/110/47 121/112/47 120/111/47
f 121/112/48 123/114/48 122/113/48
f 123/114/49 125/116/49 124/115/49
f 125/116/50 127/118/50 126/117/50
f 127/118/51 129/120/51 128/119/51
f 129/120/52 131/122/52 130/121/52
f 131/122/53 133/124/53 132/123/53
f 133/124/54 135/126/54 134/125/54
f 135/126/55 137/128/55 136/127/55
f 137/128/56 139/130/56 138/129/56
f 139/130/57 141/132/57 140/131/57
f 141/132/58 143/134/58 142/133/58
f 143/134/59 145/136/59 144/135/59
f 145/136/60 147/138/60 146/137/60
f 147/138/61 149/140/61 148/139/61
f 149/140/62 151/142/62 150/141/62
f 151/142/63 153/144/63 152/143/63
f 153/144/64 155/146/64 154/145/64
f 155/146/65 157/148/65 156/147/65
f 157/148/66 159/150/66 158/149/66
f 159/150/67 161/152/67 160/151/67
f 161/152/68 163/157/68 162/153/68
f 107/156/69 105/193/69 103/194/69
f 103/194/69 165/195/69 163/196/69
f 163/196/69 161/197/69 159/198/69
f 159/198/69 157/199/69 155/200/69
f 155/200/69 153/201/69 151/202/69
f 151/202/69 149/203/69 147/204/69
f 147/204/69 145/205/69 143/206/69
f 143/206/69 141/207/69 139/154/69
f 139/154/69 137/208/69 135/209/69
f 135/209/69 133/210/69 131/211/69
f 131/211/69 129/212/69 127/213/69
f 127/213/69 125/214/69 123/155/69
f 123/155/69 121/215/69 119/216/69
f 119/216/69 117/217/69 115/218/69
f 115/218/69 113/219/69 111/220/69
f 111/220/69 109/221/69 107/156/69
f 107/156/69 103/194/69 163/196/69
f 163/196/69 159/198/69 107/156/69
f 159/198/69 155/200/69 107/156/69
f 155/200/69 151/202/69 147/204/69
f 147/204/69 143/206/69 155/200/69
f 143/206/69 139/154/69 155/200/69
f 139/154/69 135/209/69 131/211/69
f 131/211/69 127/213/69 139/154/69
f 127/213/69 123/155/69 139/154/69
f 123/155/69 119/216/69 115/218/69
f 115/218/69 111/220/69 123/155/69
f 111/220/69 107/156/69 123/155/69
f 107/156/69 155/200/69 139/154/69
f 163/157/70 165/159/70 164/158/70
f 165/159/71 103/222/71 102/160/71
f 164/163/36 102/223/36 104/224/36
f 104/224/36 106/225/36 164/163/36
f 106/225/36 108/226/36 164/163/36
f 108/226/36 110/227/36 112/228/36
f 112/228/36 114/229/36 108/226/36
f 114/229/36 116/230/36 108/226/36
f 116/230/36 118/231/36 120/232/36
f 120/232/36 122/233/36 124/234/36
f 124/234/36 126/235/36 128/236/36
f 128/236/36 130/237/36 124/234/36
f 130/237/36 132/238/36 124/234/36
f 132/238/36 134/239/36 136/240/36
f 136/240/36 138/241/36 132/238/36
f 138/241/36 140/242/36 132/238/36
f 140/242/36 142/243/36 144/244/36
f 144/244/36 146/245/36 140/242/36
f 146/245/36 148/161/36 140/242/36
f 148/161/36 150/246/36 152/247/36
f 152/247/36 154/248/36 148/161/36
f 154/248/36 156/162/36 148/161/36
f 156/162/36 158/249/36 160/250/36
f 160/250/36 162/251/36 156/162/36
f 162/251/36 164/163/36 156/162/36
f 116/230/36 120/232/36 132/238/36
f 120/232/36 124/234/36 132/238/36
f 164/163/36 108/226/36 132/238/36
f 108/226/36 116/230/36 132/238/36
f 132/238/36 140/242/36 164/163/36
f 140/242/36 148/161/36 164/163/36
