# Blender 4.1.1
# www.blender.org
mtllib Bullet.mtl
o 球.001
v -0.280608 0.085587 -0.000000
v -0.419960 0.057187 -0.000000
v -0.495376 0.020081 -0.000000
v -0.505081 0.000000 0.000000
v -0.495376 -0.020081 0.000000
v -0.419960 -0.057187 0.000000
v -0.096643 0.100956 -0.003860
v -0.189572 0.095099 -0.007571
v -0.275216 0.085587 -0.010991
v -0.350284 0.072785 -0.013989
v -0.411890 0.057187 -0.016450
v -0.457668 0.039391 -0.018278
v -0.485858 0.020081 -0.019404
v -0.495376 -0.000000 -0.019784
v -0.485858 -0.020081 -0.019404
v -0.457668 -0.039391 -0.018278
v -0.411890 -0.057187 -0.016450
v -0.350284 -0.072785 -0.013989
v -0.275216 -0.085587 -0.010991
v -0.189572 -0.095099 -0.007571
v -0.096643 -0.100956 -0.003860
v -0.091036 0.100956 -0.007571
v -0.178573 0.095099 -0.014851
v -0.259248 0.085587 -0.021560
v -0.329960 0.072785 -0.027441
v -0.387992 0.057187 -0.032267
v -0.431114 0.039391 -0.035853
v -0.457668 0.020081 -0.038061
v -0.466634 -0.000000 -0.038807
v -0.457668 -0.020081 -0.038061
v -0.431114 -0.039391 -0.035853
v -0.387992 -0.057187 -0.032267
v -0.329960 -0.072785 -0.027441
v -0.259248 -0.085587 -0.021560
v -0.178573 -0.095099 -0.014851
v -0.091036 -0.100956 -0.007571
v -0.081930 0.100956 -0.010991
v -0.160712 0.095099 -0.021560
v -0.233317 0.085587 -0.031300
v -0.296956 0.072785 -0.039838
v -0.349184 0.057187 -0.046844
v -0.387992 0.039391 -0.052051
v -0.411890 0.020081 -0.055257
v -0.419959 -0.000000 -0.056339
v -0.411890 -0.020081 -0.055257
v -0.387992 -0.039391 -0.052051
v -0.349184 -0.057187 -0.046844
v -0.296956 -0.072785 -0.039838
v -0.233317 -0.085587 -0.031300
v -0.160712 -0.095099 -0.021560
v -0.081930 -0.100956 -0.010991
v -0.069676 0.100956 -0.013989
v -0.136674 0.095099 -0.027441
v -0.198420 0.085587 -0.039838
v -0.252541 0.072785 -0.050704
v -0.296956 0.057187 -0.059622
v -0.329960 0.039391 -0.066248
v -0.350284 0.020081 -0.070328
v -0.357146 -0.000000 -0.071706
v -0.350284 -0.020081 -0.070328
v -0.329960 -0.039391 -0.066248
v -0.296956 -0.057187 -0.059622
v -0.252541 -0.072785 -0.050704
v -0.198420 -0.085587 -0.039838
v -0.136674 -0.095099 -0.027441
v -0.069676 -0.100956 -0.013989
v -0.054744 0.100956 -0.016450
v -0.107384 0.095099 -0.032267
v -0.155897 0.085587 -0.046844
v -0.198420 0.072785 -0.059622
v -0.233317 0.057187 -0.070108
v -0.259248 0.039391 -0.077899
v -0.275216 0.020081 -0.082697
v -0.280608 -0.000000 -0.084318
v -0.275216 -0.020081 -0.082697
v -0.259248 -0.039391 -0.077899
v -0.233317 -0.057187 -0.070108
v -0.198420 -0.072785 -0.059622
v -0.155897 -0.085587 -0.046844
v -0.107384 -0.095099 -0.032267
v -0.054744 -0.100956 -0.016450
v 0.000000 0.102934 -0.000000
v -0.037708 0.100956 -0.018278
v -0.073967 0.095099 -0.035853
v -0.107384 0.085587 -0.052051
v -0.136674 0.072785 -0.066248
v -0.160711 0.057187 -0.077899
v -0.178573 0.039391 -0.086557
v -0.189572 0.020081 -0.091889
v -0.193286 -0.000000 -0.093689
v -0.189572 -0.020081 -0.091889
v -0.178573 -0.039391 -0.086557
v -0.160711 -0.057187 -0.077899
v -0.136674 -0.072785 -0.066248
v -0.107384 -0.085587 -0.052051
v -0.073967 -0.095099 -0.035853
v -0.037708 -0.100956 -0.018278
v -0.019223 0.100956 -0.019404
v -0.037708 0.095099 -0.038061
v -0.054744 0.085587 -0.055257
v -0.069676 0.072785 -0.070328
v -0.081930 0.057187 -0.082697
v -0.091036 0.039391 -0.091889
v -0.096643 0.020081 -0.097548
v -0.098536 -0.000000 -0.099459
v -0.096643 -0.020081 -0.097548
v -0.091036 -0.039391 -0.091889
v -0.081930 -0.057187 -0.082697
v -0.069676 -0.072785 -0.070328
v -0.054744 -0.085587 -0.055257
v -0.037708 -0.095099 -0.038061
v -0.019223 -0.100956 -0.019404
v 0.000000 0.100956 -0.019784
v 0.000000 0.095099 -0.038807
v 0.000000 0.085587 -0.056339
v 0.000000 0.072785 -0.071706
v 0.000000 0.057187 -0.084318
v 0.000000 0.039391 -0.093689
v 0.000000 0.020081 -0.099459
v 0.000000 -0.000000 -0.101408
v 0.000000 -0.020081 -0.099459
v 0.000000 -0.039391 -0.093689
v 0.000000 -0.057187 -0.084318
v 0.000000 -0.072785 -0.071706
v 0.000000 -0.085587 -0.056339
v 0.000000 -0.095099 -0.038807
v 0.000000 -0.100956 -0.019784
v 0.019224 0.100956 -0.019404
v 0.037708 0.095099 -0.038061
v 0.054744 0.085587 -0.055257
v 0.069676 0.072785 -0.070328
v 0.081930 0.057187 -0.082697
v 0.091036 0.039391 -0.091889
v 0.096643 0.020081 -0.097548
v 0.098536 -0.000000 -0.099459
v 0.096643 -0.020081 -0.097548
v 0.091036 -0.039391 -0.091889
v 0.081930 -0.057187 -0.082697
v 0.069676 -0.072785 -0.070328
v 0.054744 -0.085587 -0.055257
v 0.037708 -0.095099 -0.038061
v 0.019224 -0.100956 -0.019404
v 0.037708 0.100956 -0.018278
v 0.073967 0.095099 -0.035853
v 0.107384 0.085587 -0.052051
v 0.136674 0.072785 -0.066248
v 0.160712 0.057187 -0.077899
v 0.178573 0.039391 -0.086557
v 0.189572 0.020081 -0.091889
v 0.193286 -0.000000 -0.093689
v 0.189572 -0.020081 -0.091889
v 0.178573 -0.039391 -0.086557
v 0.160712 -0.057187 -0.077899
v 0.136674 -0.072785 -0.066248
v 0.107384 -0.085587 -0.052051
v 0.073967 -0.095099 -0.035853
v 0.037708 -0.100956 -0.018278
v 0.054744 0.100956 -0.016450
v 0.107384 0.095099 -0.032267
v 0.155897 0.085587 -0.046844
v 0.198420 0.072785 -0.059622
v 0.233317 0.057187 -0.070108
v 0.259248 0.039391 -0.077899
v 0.275216 0.020081 -0.082697
v 0.280608 -0.000000 -0.084318
v 0.275216 -0.020081 -0.082697
v 0.259248 -0.039391 -0.077899
v 0.233317 -0.057187 -0.070108
v 0.198420 -0.072785 -0.059622
v 0.155897 -0.085587 -0.046844
v 0.107384 -0.095099 -0.032267
v 0.054744 -0.100956 -0.016450
v 0.069676 0.100956 -0.013989
v 0.136674 0.095099 -0.027441
v 0.198420 0.085587 -0.039838
v 0.252540 0.072785 -0.050704
v 0.296956 0.057187 -0.059622
v 0.329960 0.039391 -0.066248
v 0.350284 0.020081 -0.070328
v 0.357146 -0.000000 -0.071706
v 0.350284 -0.020081 -0.070328
v 0.329960 -0.039391 -0.066248
v 0.296956 -0.057187 -0.059622
v 0.252540 -0.072785 -0.050704
v 0.198420 -0.085587 -0.039838
v 0.136674 -0.095099 -0.027441
v 0.069676 -0.100956 -0.013989
v 0.081930 0.100956 -0.010991
v 0.160712 0.095099 -0.021560
v 0.233317 0.085587 -0.031300
v 0.296956 0.072785 -0.039838
v 0.349183 0.057187 -0.046844
v 0.387992 0.039391 -0.052051
v 0.411890 0.020081 -0.055257
v 0.419959 -0.000000 -0.056339
v 0.411890 -0.020081 -0.055257
v 0.387992 -0.039391 -0.052051
v 0.349183 -0.057187 -0.046844
v 0.296956 -0.072785 -0.039838
v 0.233317 -0.085587 -0.031300
v 0.160712 -0.095099 -0.021560
v 0.081930 -0.100956 -0.010991
v 0.091036 0.100956 -0.007571
v 0.178573 0.095099 -0.014851
v 0.259248 0.085587 -0.021560
v 0.329960 0.072785 -0.027441
v 0.387992 0.057187 -0.032267
v 0.431114 0.039391 -0.035853
v 0.457668 0.020081 -0.038061
v 0.466634 -0.000000 -0.038807
v 0.457668 -0.020081 -0.038061
v 0.431114 -0.039391 -0.035853
v 0.387992 -0.057187 -0.032267
v 0.329960 -0.072785 -0.027441
v 0.259248 -0.085587 -0.021560
v 0.178573 -0.095099 -0.014851
v 0.091036 -0.100956 -0.007571
v 0.096643 0.100956 -0.003860
v 0.189572 0.095099 -0.007571
v 0.275216 0.085587 -0.010991
v 0.350284 0.072785 -0.013989
v 0.411890 0.057187 -0.016450
v 0.457668 0.039391 -0.018278
v 0.485857 0.020081 -0.019404
v 0.495376 -0.000000 -0.019784
v 0.485857 -0.020081 -0.019404
v 0.457668 -0.039391 -0.018278
v 0.411890 -0.057187 -0.016450
v 0.350284 -0.072785 -0.013989
v 0.275216 -0.085587 -0.010991
v 0.189572 -0.095099 -0.007571
v 0.096643 -0.100956 -0.003860
v 0.098536 0.100956 -0.000000
v 0.193286 0.095099 -0.000000
v 0.280608 0.085587 -0.000000
v 0.357146 0.072785 -0.000000
v 0.419959 0.057187 -0.000000
v 0.466634 0.039391 -0.000000
v 0.495376 0.020081 -0.000000
v 0.505081 0.000000 0.000000
v 0.495376 -0.020081 0.000000
v 0.466634 -0.039391 0.000000
v 0.419959 -0.057187 0.000000
v 0.357146 -0.072785 0.000000
v 0.280608 -0.085587 0.000000
v 0.193286 -0.095099 0.000000
v 0.098536 -0.100956 0.000000
v 0.096643 0.100956 0.003860
v 0.189572 0.095099 0.007571
v 0.275216 0.085587 0.010991
v 0.350284 0.072785 0.013989
v 0.411890 0.057187 0.016450
v 0.457668 0.039391 0.018278
v 0.485857 0.020081 0.019404
v 0.495376 0.000000 0.019784
v 0.485857 -0.020081 0.019404
v 0.457668 -0.039391 0.018278
v 0.411890 -0.057187 0.016450
v 0.350284 -0.072785 0.013989
v 0.275216 -0.085587 0.010991
v 0.189572 -0.095099 0.007571
v 0.096643 -0.100956 0.003860
v 0.091036 0.100956 0.007571
v 0.178573 0.095099 0.014851
v 0.259248 0.085587 0.021560
v 0.329960 0.072785 0.027441
v 0.387992 0.057187 0.032267
v 0.431114 0.039391 0.035853
v 0.457668 0.020081 0.038061
v 0.466634 0.000000 0.038807
v 0.457668 -0.020081 0.038061
v 0.431114 -0.039391 0.035853
v 0.387992 -0.057187 0.032267
v 0.329960 -0.072785 0.027441
v 0.259248 -0.085587 0.021560
v 0.178573 -0.095099 0.014851
v 0.091036 -0.100956 0.007571
v 0.081930 0.100956 0.010991
v 0.160712 0.095099 0.021560
v 0.233317 0.085587 0.031300
v 0.296956 0.072785 0.039838
v 0.349183 0.057187 0.046844
v 0.387992 0.039391 0.052051
v 0.411890 0.020081 0.055257
v 0.419959 0.000000 0.056339
v 0.411890 -0.020081 0.055257
v 0.387992 -0.039391 0.052051
v 0.349183 -0.057187 0.046844
v 0.296956 -0.072785 0.039838
v 0.233317 -0.085587 0.031300
v 0.160712 -0.095099 0.021560
v 0.081930 -0.100956 0.010991
v 0.069676 0.100956 0.013989
v 0.136674 0.095099 0.027441
v 0.198420 0.085587 0.039838
v 0.252540 0.072785 0.050704
v 0.296956 0.057187 0.059622
v 0.329960 0.039391 0.066248
v 0.350284 0.020081 0.070328
v 0.357146 0.000000 0.071706
v 0.350284 -0.020081 0.070328
v 0.329960 -0.039391 0.066248
v 0.296956 -0.057187 0.059622
v 0.252540 -0.072785 0.050704
v 0.198420 -0.085587 0.039838
v 0.136674 -0.095099 0.027441
v 0.069676 -0.100956 0.013989
v 0.000000 -0.102934 0.000000
v 0.054744 0.100956 0.016450
v 0.107384 0.095099 0.032267
v 0.155897 0.085587 0.046844
v 0.198420 0.072785 0.059622
v 0.233317 0.057187 0.070108
v 0.259248 0.039391 0.077899
v 0.275216 0.020081 0.082697
v 0.280608 0.000000 0.084318
v 0.275216 -0.020081 0.082697
v 0.259248 -0.039391 0.077899
v 0.233317 -0.057187 0.070108
v 0.198420 -0.072785 0.059622
v 0.155897 -0.085587 0.046844
v 0.107384 -0.095099 0.032267
v 0.054744 -0.100956 0.016450
v 0.037708 0.100956 0.018278
v 0.073967 0.095099 0.035853
v 0.107384 0.085587 0.052051
v 0.136674 0.072785 0.066248
v 0.160711 0.057187 0.077899
v 0.178573 0.039391 0.086557
v 0.189572 0.020081 0.091888
v 0.193286 0.000000 0.093689
v 0.189572 -0.020081 0.091888
v 0.178573 -0.039391 0.086557
v 0.160711 -0.057187 0.077899
v 0.136674 -0.072785 0.066248
v 0.107384 -0.085587 0.052051
v 0.073967 -0.095099 0.035853
v 0.037708 -0.100956 0.018278
v 0.019223 0.100956 0.019404
v 0.037708 0.095099 0.038061
v 0.054744 0.085587 0.055257
v 0.069676 0.072785 0.070328
v 0.081930 0.057187 0.082697
v 0.091036 0.039391 0.091888
v 0.096643 0.020081 0.097548
v 0.098536 0.000000 0.099459
v 0.096643 -0.020081 0.097548
v 0.091036 -0.039391 0.091888
v 0.081930 -0.057187 0.082697
v 0.069676 -0.072785 0.070328
v 0.054744 -0.085587 0.055257
v 0.037708 -0.095099 0.038061
v 0.019223 -0.100956 0.019404
v 0.000000 0.100956 0.019784
v 0.000000 0.095099 0.038807
v 0.000000 0.085587 0.056339
v 0.000000 0.072785 0.071706
v 0.000000 0.057187 0.084318
v 0.000000 0.039391 0.093689
v 0.000000 0.020081 0.099459
v 0.000000 0.000000 0.101408
v 0.000000 -0.020081 0.099459
v 0.000000 -0.039391 0.093689
v 0.000000 -0.057187 0.084318
v 0.000000 -0.072785 0.071706
v 0.000000 -0.085587 0.056339
v 0.000000 -0.095099 0.038807
v 0.000000 -0.100956 0.019784
v -0.019223 0.100956 0.019404
v -0.037708 0.095099 0.038061
v -0.054744 0.085587 0.055257
v -0.069676 0.072785 0.070328
v -0.081930 0.057187 0.082697
v -0.091036 0.039391 0.091888
v -0.096643 0.020081 0.097548
v -0.098537 0.000000 0.099459
v -0.096643 -0.020081 0.097548
v -0.091036 -0.039391 0.091888
v -0.081930 -0.057187 0.082697
v -0.069676 -0.072785 0.070328
v -0.054744 -0.085587 0.055257
v -0.037708 -0.095099 0.038061
v -0.019223 -0.100956 0.019404
v -0.037708 0.100956 0.018278
v -0.073967 0.095099 0.035853
v -0.107384 0.085587 0.052051
v -0.136674 0.072785 0.066248
v -0.160712 0.057187 0.077899
v -0.178573 0.039391 0.086557
v -0.189572 0.020081 0.091888
v -0.193286 0.000000 0.093689
v -0.189572 -0.020081 0.091888
v -0.178573 -0.039391 0.086557
v -0.160712 -0.057187 0.077899
v -0.136674 -0.072785 0.066248
v -0.107384 -0.085587 0.052051
v -0.073967 -0.095099 0.035853
v -0.037708 -0.100956 0.018278
v -0.054744 0.100956 0.016450
v -0.107384 0.095099 0.032267
v -0.155897 0.085587 0.046844
v -0.198420 0.072785 0.059622
v -0.233317 0.057187 0.070107
v -0.259248 0.039391 0.077899
v -0.275216 0.020081 0.082697
v -0.280608 0.000000 0.084318
v -0.275216 -0.020081 0.082697
v -0.259248 -0.039391 0.077899
v -0.233317 -0.057187 0.070107
v -0.198420 -0.072785 0.059622
v -0.155897 -0.085587 0.046844
v -0.107384 -0.095099 0.032267
v -0.054744 -0.100956 0.016450
v -0.069676 0.100956 0.013989
v -0.136674 0.095099 0.027441
v -0.198420 0.085587 0.039838
v -0.252540 0.072785 0.050704
v -0.296956 0.057187 0.059622
v -0.329960 0.039391 0.066248
v -0.350284 0.020081 0.070328
v -0.357146 0.000000 0.071706
v -0.350284 -0.020081 0.070328
v -0.329960 -0.039391 0.066248
v -0.296956 -0.057187 0.059622
v -0.252540 -0.072785 0.050704
v -0.198420 -0.085587 0.039838
v -0.136674 -0.095099 0.027441
v -0.069676 -0.100956 0.013989
v -0.081930 0.100956 0.010991
v -0.160711 0.095099 0.021560
v -0.233317 0.085587 0.031300
v -0.296956 0.072785 0.039838
v -0.349183 0.057187 0.046844
v -0.387992 0.039391 0.052051
v -0.411890 0.020081 0.055257
v -0.419959 0.000000 0.056339
v -0.411890 -0.020081 0.055257
v -0.387992 -0.039391 0.052051
v -0.349183 -0.057187 0.046844
v -0.296956 -0.072785 0.039838
v -0.233317 -0.085587 0.031300
v -0.160711 -0.095099 0.021560
v -0.081930 -0.100956 0.010991
v -0.091036 0.100956 0.007571
v -0.178573 0.095099 0.014851
v -0.259248 0.085587 0.021560
v -0.329960 0.072785 0.027441
v -0.387992 0.057187 0.032267
v -0.431113 0.039391 0.035853
v -0.457668 0.020081 0.038061
v -0.466634 0.000000 0.038807
v -0.457668 -0.020081 0.038061
v -0.431113 -0.039391 0.035853
v -0.387992 -0.057187 0.032267
v -0.329960 -0.072785 0.027441
v -0.259248 -0.085587 0.021560
v -0.178573 -0.095099 0.014851
v -0.091036 -0.100956 0.007571
v -0.096643 0.100956 0.003860
v -0.189572 0.095099 0.007571
v -0.275216 0.085587 0.010991
v -0.350284 0.072785 0.013989
v -0.411890 0.057187 0.016450
v -0.457668 0.039391 0.018278
v -0.485857 0.020081 0.019404
v -0.495376 0.000000 0.019784
v -0.485857 -0.020081 0.019404
v -0.457668 -0.039391 0.018278
v -0.411890 -0.057187 0.016450
v -0.350284 -0.072785 0.013989
v -0.275216 -0.085587 0.010991
v -0.189572 -0.095099 0.007571
v -0.096643 -0.100956 0.003860
v -0.098536 0.100956 -0.000000
v -0.193286 0.095099 -0.000000
v -0.357146 0.072785 -0.000000
v -0.466634 0.039391 -0.000000
v -0.466634 -0.039391 0.000000
v -0.357146 -0.072785 0.000000
v -0.280608 -0.085587 0.000000
v -0.193286 -0.095099 0.000000
v -0.098536 -0.100956 0.000000
vn -0.1644 0.9831 -0.0807
vn -0.2393 -0.9638 -0.1174
vn -0.2393 0.9638 -0.1174
vn -0.1644 -0.9831 -0.0807
vn -0.3509 0.9204 -0.1722
vn -0.1081 -0.9927 -0.0530
vn -0.5379 0.8006 -0.2639
vn -0.0617 -0.9976 -0.0302
vn -0.8236 0.3980 -0.4040
vn -0.0201 0.9998 -0.0098
vn -0.0201 -0.9998 -0.0098
vn -0.8236 -0.3980 -0.4040
vn -0.0617 0.9976 -0.0303
vn -0.5379 -0.8006 -0.2639
vn -0.1081 0.9927 -0.0530
vn -0.3509 -0.9204 -0.1722
vn -0.1029 0.9825 -0.1555
vn -0.3054 -0.8330 -0.4614
vn -0.1544 0.9601 -0.2333
vn -0.2192 -0.9178 -0.3311
vn -0.2191 0.9178 -0.3311
vn -0.1544 -0.9601 -0.2333
vn -0.3054 0.8330 -0.4614
vn -0.1029 -0.9825 -0.1555
vn -0.4196 0.6496 -0.6340
vn -0.0591 -0.9943 -0.0893
vn -0.5318 0.2673 -0.8036
vn -0.0193 0.9994 -0.0291
vn -0.0193 -0.9994 -0.0291
vn -0.5318 -0.2673 -0.8036
vn -0.0591 0.9943 -0.0893
vn -0.4196 -0.6496 -0.6340
vn -0.3028 0.5085 -0.8060
vn -0.0541 -0.9881 -0.1441
vn -0.3453 0.1883 -0.9194
vn -0.0178 0.9987 -0.0473
vn -0.0178 -0.9987 -0.0473
vn -0.3454 -0.1883 -0.9194
vn -0.0541 0.9881 -0.1441
vn -0.3028 -0.5085 -0.8060
vn -0.0931 0.9643 -0.2478
vn -0.2436 -0.7211 -0.6486
vn -0.1366 0.9215 -0.3636
vn -0.1865 -0.8477 -0.4966
vn -0.1865 0.8477 -0.4966
vn -0.1366 -0.9215 -0.3636
vn -0.2436 0.7211 -0.6486
vn -0.0931 -0.9643 -0.2478
vn -0.1854 -0.6258 -0.7576
vn -0.1140 0.8774 -0.4660
vn -0.1498 -0.7764 -0.6121
vn -0.1498 0.7764 -0.6121
vn -0.1140 -0.8774 -0.4660
vn -0.1853 0.6258 -0.7576
vn -0.0797 -0.9421 -0.3258
vn -0.2163 0.4144 -0.8840
vn -0.0471 -0.9802 -0.1924
vn -0.2351 0.1462 -0.9609
vn -0.0156 0.9979 -0.0636
vn -0.0156 -0.9979 -0.0636
vn -0.2351 -0.1463 -0.9609
vn -0.0471 0.9802 -0.1924
vn -0.2163 -0.4144 -0.8840
vn -0.0797 0.9421 -0.3258
vn -0.0383 -0.9719 -0.2324
vn -0.1614 0.1223 -0.9793
vn -0.0128 0.9969 -0.0774
vn -0.0128 -0.9969 -0.0774
vn -0.1614 -0.1224 -0.9793
vn -0.0383 0.9719 -0.2324
vn -0.1520 -0.3549 -0.9225
vn -0.0639 0.9196 -0.3876
vn -0.1351 -0.5560 -0.8201
vn -0.0892 0.8362 -0.5411
vn -0.1134 -0.7165 -0.6883
vn -0.1134 0.7165 -0.6883
vn -0.0892 -0.8362 -0.5411
vn -0.1351 0.5560 -0.8201
vn -0.0639 -0.9196 -0.3876
vn -0.1520 0.3549 -0.9225
vn -0.0636 0.8029 -0.5927
vn -0.0790 -0.6719 -0.7364
vn -0.0790 0.6719 -0.7364
vn -0.0636 -0.8029 -0.5927
vn -0.0919 0.5086 -0.8561
vn -0.0464 -0.9003 -0.4328
vn -0.1012 0.3179 -0.9427
vn -0.0282 -0.9643 -0.2631
vn -0.1061 0.1083 -0.9884
vn -0.0095 0.9961 -0.0883
vn -0.0095 -0.9961 -0.0883
vn -0.1061 -0.1082 -0.9884
vn -0.0282 0.9643 -0.2631
vn -0.1012 -0.3179 -0.9427
vn -0.0465 0.9003 -0.4328
vn -0.0919 -0.5087 -0.8560
vn -0.0605 0.1002 -0.9931
vn -0.0058 0.9954 -0.0957
vn -0.0058 -0.9954 -0.0957
vn -0.0605 -0.1002 -0.9931
vn -0.0173 0.9587 -0.2838
vn -0.0581 -0.2962 -0.9533
vn -0.0282 0.8863 -0.4623
vn -0.0533 -0.4797 -0.8758
vn -0.0380 0.7799 -0.6248
vn -0.0466 -0.6429 -0.7646
vn -0.0466 0.6429 -0.7646
vn -0.0381 -0.7799 -0.6248
vn -0.0533 0.4797 -0.8758
vn -0.0282 -0.8863 -0.4623
vn -0.0581 0.2963 -0.9533
vn -0.0173 -0.9587 -0.2838
vn -0.0154 -0.6287 -0.7775
vn -0.0154 0.6287 -0.7775
vn -0.0126 -0.7683 -0.6400
vn -0.0175 0.4659 -0.8847
vn -0.0094 -0.8789 -0.4769
vn -0.0189 0.2862 -0.9580
vn -0.0058 -0.9557 -0.2943
vn -0.0197 0.0966 -0.9951
vn -0.0020 0.9950 -0.0995
vn -0.0020 -0.9950 -0.0995
vn -0.0197 -0.0966 -0.9951
vn -0.0058 0.9557 -0.2943
vn -0.0189 -0.2862 -0.9580
vn -0.0094 0.8789 -0.4768
vn -0.0175 -0.4659 -0.8847
vn -0.0127 0.7682 -0.6400
vn 0.0020 -0.9950 -0.0995
vn 0.0197 -0.0966 -0.9951
vn 0.0058 0.9557 -0.2943
vn 0.0189 -0.2862 -0.9580
vn 0.0094 0.8789 -0.4768
vn 0.0175 -0.4659 -0.8847
vn 0.0127 0.7682 -0.6400
vn 0.0154 -0.6287 -0.7775
vn 0.0154 0.6287 -0.7775
vn 0.0126 -0.7683 -0.6400
vn 0.0175 0.4659 -0.8847
vn 0.0094 -0.8789 -0.4769
vn 0.0189 0.2862 -0.9580
vn 0.0058 -0.9557 -0.2943
vn 0.0197 0.0966 -0.9951
vn 0.0020 0.9950 -0.0995
vn 0.0381 -0.7799 -0.6248
vn 0.0533 0.4796 -0.8758
vn 0.0282 -0.8863 -0.4623
vn 0.0581 0.2963 -0.9533
vn 0.0173 -0.9587 -0.2838
vn 0.0605 0.1002 -0.9931
vn 0.0058 0.9954 -0.0957
vn 0.0058 -0.9954 -0.0957
vn 0.0605 -0.1002 -0.9931
vn 0.0173 0.9587 -0.2838
vn 0.0581 -0.2962 -0.9533
vn 0.0282 0.8863 -0.4623
vn 0.0533 -0.4797 -0.8758
vn 0.0380 0.7799 -0.6248
vn 0.0466 -0.6429 -0.7646
vn 0.0466 0.6429 -0.7646
vn 0.0282 0.9643 -0.2631
vn 0.1012 -0.3179 -0.9427
vn 0.0465 0.9003 -0.4328
vn 0.0919 -0.5087 -0.8560
vn 0.0636 0.8029 -0.5927
vn 0.0790 -0.6719 -0.7364
vn 0.0790 0.6719 -0.7364
vn 0.0636 -0.8029 -0.5927
vn 0.0919 0.5086 -0.8561
vn 0.0464 -0.9003 -0.4328
vn 0.1012 0.3179 -0.9427
vn 0.0282 -0.9643 -0.2631
vn 0.1061 0.1083 -0.9884
vn 0.0095 0.9961 -0.0883
vn 0.0095 -0.9961 -0.0883
vn 0.1061 -0.1082 -0.9884
vn 0.1351 0.5560 -0.8201
vn 0.0639 -0.9196 -0.3876
vn 0.1520 0.3549 -0.9225
vn 0.0383 -0.9719 -0.2324
vn 0.1614 0.1223 -0.9793
vn 0.0128 0.9969 -0.0774
vn 0.0128 -0.9969 -0.0774
vn 0.1614 -0.1224 -0.9793
vn 0.0383 0.9719 -0.2324
vn 0.1520 -0.3549 -0.9225
vn 0.0639 0.9196 -0.3876
vn 0.1351 -0.5560 -0.8201
vn 0.0892 0.8362 -0.5411
vn 0.1134 -0.7165 -0.6883
vn 0.1134 0.7165 -0.6883
vn 0.0892 -0.8362 -0.5411
vn 0.2163 -0.4144 -0.8840
vn 0.0797 0.9421 -0.3258
vn 0.1854 -0.6258 -0.7576
vn 0.1140 0.8774 -0.4660
vn 0.1498 -0.7764 -0.6122
vn 0.1498 0.7764 -0.6121
vn 0.1140 -0.8774 -0.4660
vn 0.1853 0.6259 -0.7576
vn 0.0797 -0.9421 -0.3258
vn 0.2163 0.4144 -0.8840
vn 0.0471 -0.9802 -0.1924
vn 0.2351 0.1462 -0.9609
vn 0.0156 0.9979 -0.0636
vn 0.0156 -0.9979 -0.0636
vn 0.2351 -0.1463 -0.9609
vn 0.0471 0.9802 -0.1924
vn 0.0931 -0.9643 -0.2478
vn 0.3028 0.5085 -0.8060
vn 0.0541 -0.9881 -0.1441
vn 0.3453 0.1883 -0.9194
vn 0.0178 0.9987 -0.0473
vn 0.0178 -0.9987 -0.0473
vn 0.3454 -0.1883 -0.9194
vn 0.0541 0.9881 -0.1441
vn 0.3028 -0.5085 -0.8060
vn 0.0931 0.9643 -0.2478
vn 0.2436 -0.7211 -0.6486
vn 0.1366 0.9215 -0.3636
vn 0.1865 -0.8477 -0.4966
vn 0.1865 0.8477 -0.4966
vn 0.1366 -0.9215 -0.3636
vn 0.2436 0.7211 -0.6486
vn 0.1029 0.9825 -0.1555
vn 0.3054 -0.8330 -0.4614
vn 0.1544 0.9601 -0.2333
vn 0.2192 -0.9178 -0.3311
vn 0.2191 0.9178 -0.3311
vn 0.1544 -0.9601 -0.2333
vn 0.3054 0.8330 -0.4614
vn 0.1029 -0.9825 -0.1555
vn 0.4196 0.6496 -0.6340
vn 0.0591 -0.9943 -0.0893
vn 0.5318 0.2673 -0.8036
vn 0.0193 0.9994 -0.0291
vn 0.0193 -0.9994 -0.0291
vn 0.5318 -0.2673 -0.8036
vn 0.0591 0.9943 -0.0893
vn 0.4196 -0.6496 -0.6340
vn 0.5379 0.8006 -0.2639
vn 0.0617 -0.9976 -0.0302
vn 0.8236 0.3980 -0.4040
vn 0.0201 0.9998 -0.0098
vn 0.0201 -0.9998 -0.0098
vn 0.8236 -0.3981 -0.4040
vn 0.0617 0.9976 -0.0303
vn 0.5379 -0.8006 -0.2639
vn 0.1081 0.9927 -0.0530
vn 0.3509 -0.9204 -0.1721
vn 0.1644 0.9831 -0.0807
vn 0.2393 -0.9638 -0.1174
vn 0.2393 0.9638 -0.1174
vn 0.1644 -0.9831 -0.0807
vn 0.3509 0.9204 -0.1721
vn 0.1081 -0.9927 -0.0530
vn 0.3509 -0.9204 0.1721
vn 0.1644 0.9831 0.0807
vn 0.2393 -0.9638 0.1174
vn 0.2393 0.9638 0.1174
vn 0.1644 -0.9831 0.0807
vn 0.3509 0.9204 0.1721
vn 0.1081 -0.9927 0.0530
vn 0.5379 0.8006 0.2639
vn 0.0617 -0.9976 0.0302
vn 0.8236 0.3980 0.4040
vn 0.0201 0.9998 0.0098
vn 0.0201 -0.9998 0.0098
vn 0.8236 -0.3981 0.4040
vn 0.0617 0.9976 0.0303
vn 0.5379 -0.8006 0.2639
vn 0.1081 0.9927 0.0530
vn 0.0591 -0.9943 0.0893
vn 0.5318 0.2673 0.8036
vn 0.0193 0.9994 0.0291
vn 0.0193 -0.9994 0.0291
vn 0.5318 -0.2673 0.8036
vn 0.0591 0.9943 0.0893
vn 0.4196 -0.6496 0.6340
vn 0.1029 0.9825 0.1555
vn 0.3054 -0.8330 0.4614
vn 0.1544 0.9601 0.2333
vn 0.2192 -0.9178 0.3311
vn 0.2191 0.9178 0.3311
vn 0.1544 -0.9601 0.2333
vn 0.3054 0.8330 0.4614
vn 0.1029 -0.9825 0.1555
vn 0.4196 0.6496 0.6340
vn 0.1865 -0.8477 0.4966
vn 0.1865 0.8477 0.4966
vn 0.1366 -0.9215 0.3636
vn 0.2436 0.7211 0.6486
vn 0.0931 -0.9643 0.2478
vn 0.3028 0.5085 0.8060
vn 0.0541 -0.9881 0.1441
vn 0.3453 0.1883 0.9194
vn 0.0178 0.9987 0.0473
vn 0.0178 -0.9987 0.0473
vn 0.3454 -0.1883 0.9194
vn 0.0541 0.9881 0.1441
vn 0.3028 -0.5085 0.8060
vn 0.0931 0.9643 0.2478
vn 0.2436 -0.7211 0.6486
vn 0.1366 0.9215 0.3636
vn 0.0156 0.9979 0.0636
vn 0.0156 -0.9979 0.0636
vn 0.2351 -0.1463 0.9609
vn 0.0471 0.9802 0.1924
vn 0.2163 -0.4144 0.8840
vn 0.0797 0.9421 0.3258
vn 0.1854 -0.6258 0.7576
vn 0.1140 0.8774 0.4660
vn 0.1498 -0.7764 0.6122
vn 0.1498 0.7764 0.6121
vn 0.1140 -0.8774 0.4660
vn 0.1853 0.6259 0.7576
vn 0.0797 -0.9421 0.3258
vn 0.2163 0.4144 0.8840
vn 0.0471 -0.9802 0.1924
vn 0.2351 0.1462 0.9609
vn 0.1134 0.7165 0.6883
vn 0.0892 -0.8362 0.5411
vn 0.1351 0.5560 0.8201
vn 0.0639 -0.9196 0.3876
vn 0.1520 0.3549 0.9225
vn 0.0383 -0.9719 0.2324
vn 0.1614 0.1223 0.9793
vn 0.0128 0.9969 0.0774
vn 0.0128 -0.9969 0.0774
vn 0.1614 -0.1224 0.9793
vn 0.0383 0.9719 0.2324
vn 0.1520 -0.3549 0.9225
vn 0.0639 0.9196 0.3876
vn 0.1351 -0.5560 0.8201
vn 0.0892 0.8362 0.5411
vn 0.1134 -0.7165 0.6883
vn 0.1061 -0.1083 0.9884
vn 0.0282 0.9643 0.2631
vn 0.1012 -0.3179 0.9427
vn 0.0465 0.9003 0.4328
vn 0.0919 -0.5087 0.8560
vn 0.0636 0.8029 0.5927
vn 0.0790 -0.6719 0.7364
vn 0.0790 0.6719 0.7364
vn 0.0636 -0.8029 0.5927
vn 0.0919 0.5086 0.8561
vn 0.0464 -0.9003 0.4328
vn 0.1012 0.3179 0.9427
vn 0.0282 -0.9643 0.2631
vn 0.1061 0.1083 0.9884
vn 0.0095 0.9961 0.0883
vn 0.0095 -0.9961 0.0883
vn 0.0381 -0.7799 0.6248
vn 0.0533 0.4796 0.8758
vn 0.0282 -0.8863 0.4623
vn 0.0581 0.2963 0.9533
vn 0.0173 -0.9587 0.2838
vn 0.0605 0.1003 0.9931
vn 0.0058 0.9954 0.0957
vn 0.0058 -0.9954 0.0957
vn 0.0605 -0.1002 0.9931
vn 0.0173 0.9587 0.2838
vn 0.0581 -0.2963 0.9533
vn 0.0282 0.8863 0.4623
vn 0.0533 -0.4796 0.8758
vn 0.0380 0.7799 0.6248
vn 0.0466 -0.6429 0.7646
vn 0.0466 0.6429 0.7646
vn 0.0058 0.9557 0.2943
vn 0.0190 -0.2862 0.9580
vn 0.0094 0.8789 0.4768
vn 0.0175 -0.4659 0.8847
vn 0.0127 0.7682 0.6400
vn 0.0154 -0.6287 0.7775
vn 0.0154 0.6287 0.7775
vn 0.0126 -0.7683 0.6400
vn 0.0175 0.4659 0.8847
vn 0.0094 -0.8789 0.4769
vn 0.0189 0.2863 0.9580
vn 0.0058 -0.9557 0.2943
vn 0.0197 0.0966 0.9951
vn 0.0020 0.9950 0.0995
vn 0.0020 -0.9950 0.0995
vn 0.0197 -0.0966 0.9951
vn -0.0175 0.4659 0.8847
vn -0.0094 -0.8789 0.4769
vn -0.0189 0.2863 0.9580
vn -0.0058 -0.9557 0.2943
vn -0.0197 0.0966 0.9951
vn -0.0020 0.9950 0.0995
vn -0.0020 -0.9950 0.0995
vn -0.0197 -0.0966 0.9951
vn -0.0058 0.9557 0.2943
vn -0.0190 -0.2862 0.9580
vn -0.0094 0.8789 0.4768
vn -0.0175 -0.4659 0.8847
vn -0.0127 0.7682 0.6400
vn -0.0154 -0.6287 0.7775
vn -0.0154 0.6287 0.7775
vn -0.0126 -0.7683 0.6400
vn -0.0581 -0.2963 0.9533
vn -0.0282 0.8863 0.4623
vn -0.0533 -0.4796 0.8758
vn -0.0380 0.7799 0.6248
vn -0.0466 -0.6429 0.7646
vn -0.0466 0.6429 0.7646
vn -0.0381 -0.7799 0.6248
vn -0.0533 0.4796 0.8758
vn -0.0282 -0.8863 0.4623
vn -0.0581 0.2963 0.9533
vn -0.0173 -0.9587 0.2838
vn -0.0605 0.1003 0.9931
vn -0.0058 0.9954 0.0957
vn -0.0058 -0.9954 0.0957
vn -0.0605 -0.1002 0.9931
vn -0.0173 0.9587 0.2838
vn -0.0464 -0.9003 0.4328
vn -0.1012 0.3179 0.9427
vn -0.0282 -0.9643 0.2631
vn -0.1061 0.1083 0.9884
vn -0.0095 0.9961 0.0883
vn -0.0095 -0.9961 0.0883
vn -0.1061 -0.1083 0.9884
vn -0.0282 0.9643 0.2631
vn -0.1012 -0.3179 0.9427
vn -0.0465 0.9003 0.4328
vn -0.0919 -0.5087 0.8560
vn -0.0636 0.8029 0.5927
vn -0.0790 -0.6719 0.7364
vn -0.0790 0.6719 0.7364
vn -0.0636 -0.8029 0.5927
vn -0.0919 0.5087 0.8560
vn -0.1351 -0.5560 0.8201
vn -0.0892 0.8362 0.5411
vn -0.1134 -0.7165 0.6883
vn -0.1134 0.7165 0.6883
vn -0.0892 -0.8362 0.5411
vn -0.1351 0.5560 0.8201
vn -0.0639 -0.9196 0.3876
vn -0.1520 0.3549 0.9225
vn -0.0383 -0.9719 0.2324
vn -0.1614 0.1223 0.9793
vn -0.0128 0.9969 0.0774
vn -0.0128 -0.9969 0.0774
vn -0.1614 -0.1224 0.9793
vn -0.0383 0.9719 0.2324
vn -0.1520 -0.3549 0.9225
vn -0.0639 0.9196 0.3876
vn -0.0471 -0.9802 0.1924
vn -0.2351 0.1462 0.9609
vn -0.0156 0.9979 0.0636
vn -0.0156 -0.9979 0.0636
vn -0.2351 -0.1463 0.9609
vn -0.0471 0.9802 0.1924
vn -0.2163 -0.4144 0.8840
vn -0.0797 0.9421 0.3258
vn -0.1854 -0.6258 0.7576
vn -0.1140 0.8774 0.4660
vn -0.1498 -0.7764 0.6122
vn -0.1498 0.7764 0.6121
vn -0.1140 -0.8774 0.4660
vn -0.1853 0.6259 0.7576
vn -0.0797 -0.9421 0.3258
vn -0.2163 0.4144 0.8840
vn -0.1366 0.9215 0.3636
vn -0.1865 -0.8477 0.4966
vn -0.1865 0.8477 0.4966
vn -0.1366 -0.9215 0.3636
vn -0.2436 0.7211 0.6486
vn -0.0931 -0.9643 0.2478
vn -0.3028 0.5085 0.8060
vn -0.0541 -0.9881 0.1441
vn -0.3453 0.1883 0.9194
vn -0.0178 0.9987 0.0473
vn -0.0178 -0.9987 0.0473
vn -0.3454 -0.1883 0.9194
vn -0.0541 0.9881 0.1441
vn -0.3028 -0.5085 0.8060
vn -0.0931 0.9643 0.2478
vn -0.2436 -0.7211 0.6486
vn -0.5318 0.2673 0.8036
vn -0.0193 0.9994 0.0291
vn -0.0193 -0.9994 0.0291
vn -0.5318 -0.2673 0.8036
vn -0.0591 0.9943 0.0893
vn -0.4196 -0.6496 0.6340
vn -0.1029 0.9825 0.1555
vn -0.3054 -0.8330 0.4614
vn -0.1544 0.9601 0.2333
vn -0.2192 -0.9178 0.3311
vn -0.2191 0.9178 0.3311
vn -0.1544 -0.9601 0.2333
vn -0.3054 0.8330 0.4614
vn -0.1029 -0.9825 0.1555
vn -0.4196 0.6496 0.6340
vn -0.0591 -0.9943 0.0893
vn -0.2393 -0.9638 0.1174
vn -0.2393 0.9638 0.1174
vn -0.1644 -0.9831 0.0807
vn -0.3509 0.9204 0.1722
vn -0.1081 -0.9927 0.0530
vn -0.5379 0.8006 0.2639
vn -0.0617 -0.9976 0.0302
vn -0.8236 0.3980 0.4040
vn -0.0201 0.9998 0.0098
vn -0.0201 -0.9998 0.0098
vn -0.8236 -0.3981 0.4040
vn -0.0617 0.9976 0.0303
vn -0.5379 -0.8006 0.2639
vn -0.1081 0.9927 0.0530
vn -0.3509 -0.9204 0.1722
vn -0.1644 0.9831 0.0807
vn -0.0617 -0.9976 -0.0303
vn -0.0617 0.9976 -0.0302
vn -0.2191 -0.9178 -0.3311
vn -0.2192 0.9178 -0.3311
vn -0.3454 0.1883 -0.9194
vn -0.3453 -0.1883 -0.9194
vn -0.1853 -0.6258 -0.7576
vn -0.1854 0.6258 -0.7576
vn -0.2351 0.1463 -0.9609
vn -0.2351 -0.1462 -0.9609
vn -0.1614 0.1224 -0.9793
vn -0.1614 -0.1223 -0.9793
vn -0.0919 0.5087 -0.8560
vn -0.0465 -0.9003 -0.4328
vn -0.1061 0.1082 -0.9884
vn -0.1061 -0.1083 -0.9884
vn -0.0464 0.9003 -0.4328
vn -0.0919 -0.5086 -0.8561
vn -0.0581 -0.2963 -0.9533
vn -0.0381 0.7799 -0.6248
vn -0.0380 -0.7799 -0.6248
vn -0.0581 0.2962 -0.9533
vn -0.0127 -0.7682 -0.6400
vn -0.0094 -0.8789 -0.4768
vn -0.0094 0.8789 -0.4769
vn -0.0126 0.7683 -0.6400
vn 0.0094 0.8789 -0.4769
vn 0.0126 0.7683 -0.6400
vn 0.0127 -0.7682 -0.6400
vn 0.0094 -0.8789 -0.4768
vn 0.0380 -0.7799 -0.6248
vn 0.0533 0.4797 -0.8758
vn 0.0581 0.2962 -0.9533
vn 0.0581 -0.2963 -0.9533
vn 0.0381 0.7799 -0.6248
vn 0.0464 0.9003 -0.4328
vn 0.0919 -0.5086 -0.8561
vn 0.0919 0.5087 -0.8560
vn 0.0465 -0.9003 -0.4328
vn 0.1061 0.1082 -0.9884
vn 0.1061 -0.1083 -0.9884
vn 0.1614 0.1224 -0.9793
vn 0.1614 -0.1223 -0.9793
vn 0.1853 -0.6259 -0.7576
vn 0.1498 -0.7764 -0.6121
vn 0.1498 0.7764 -0.6122
vn 0.1854 0.6258 -0.7576
vn 0.2351 0.1463 -0.9609
vn 0.2351 -0.1462 -0.9609
vn 0.3454 0.1883 -0.9194
vn 0.3453 -0.1883 -0.9194
vn 0.2191 -0.9178 -0.3311
vn 0.2192 0.9178 -0.3311
vn 0.0617 -0.9976 -0.0303
vn 0.8236 0.3981 -0.4040
vn 0.8236 -0.3980 -0.4040
vn 0.0617 0.9976 -0.0302
vn 0.0617 -0.9976 0.0303
vn 0.8236 0.3981 0.4040
vn 0.8236 -0.3980 0.4040
vn 0.0617 0.9976 0.0302
vn 0.2191 -0.9178 0.3311
vn 0.2192 0.9178 0.3311
vn 0.3454 0.1883 0.9194
vn 0.3453 -0.1883 0.9194
vn 0.2351 -0.1462 0.9609
vn 0.1853 -0.6259 0.7576
vn 0.1498 -0.7764 0.6121
vn 0.1854 0.6258 0.7576
vn 0.2351 0.1463 0.9609
vn 0.1614 0.1224 0.9793
vn 0.1614 -0.1223 0.9793
vn 0.0464 0.9003 0.4328
vn 0.0919 -0.5086 0.8561
vn 0.0919 0.5087 0.8560
vn 0.0465 -0.9003 0.4328
vn 0.0380 -0.7799 0.6248
vn 0.0605 0.1002 0.9931
vn 0.0605 -0.1003 0.9931
vn 0.0381 0.7799 0.6248
vn 0.0189 -0.2863 0.9580
vn 0.0094 0.8789 0.4769
vn 0.0126 0.7683 0.6400
vn 0.0127 -0.7682 0.6400
vn 0.0094 -0.8789 0.4768
vn 0.0190 0.2862 0.9580
vn -0.0094 -0.8789 0.4768
vn -0.0190 0.2862 0.9580
vn -0.0189 -0.2863 0.9580
vn -0.0094 0.8789 0.4769
vn -0.0126 0.7683 0.6400
vn -0.0127 -0.7682 0.6400
vn -0.0381 0.7799 0.6248
vn -0.0380 -0.7799 0.6248
vn -0.0605 0.1002 0.9931
vn -0.0605 -0.1003 0.9931
vn -0.0465 -0.9003 0.4328
vn -0.0464 0.9003 0.4328
vn -0.1614 0.1224 0.9793
vn -0.1614 -0.1223 0.9793
vn -0.2351 0.1463 0.9609
vn -0.2351 -0.1462 0.9609
vn -0.1853 -0.6259 0.7576
vn -0.1498 -0.7764 0.6121
vn -0.1854 0.6258 0.7576
vn -0.3454 0.1883 0.9194
vn -0.3453 -0.1883 0.9194
vn -0.2191 -0.9178 0.3311
vn -0.2192 0.9178 0.3311
vn -0.0617 -0.9976 0.0303
vn -0.8236 0.3981 0.4040
vn -0.8236 -0.3980 0.4040
vn -0.0617 0.9976 0.0302
vt 0.812438 0.250050
vt 0.749950 0.281294
vt 0.749950 0.250050
vt 0.250050 0.250050
vt 0.312537 0.281294
vt 0.250050 0.281294
vt 0.687463 0.281294
vt 0.687463 0.250050
vt 0.187562 0.250050
vt 0.187562 0.281294
vt 0.624975 0.281294
vt 0.624975 0.250050
vt 0.125075 0.250050
vt 0.125075 0.281294
vt 0.562488 0.281294
vt 0.562488 0.250050
vt 0.062587 0.250050
vt 0.062587 0.281294
vt 0.500000 0.281294
vt 0.500000 0.250050
vt 0.937413 0.250050
vt 0.999900 0.265672
vt 0.937413 0.281294
vt 0.000100 0.265672
vt 0.437512 0.250050
vt 0.437512 0.281294
vt 0.874925 0.281294
vt 0.874925 0.250050
vt 0.375025 0.250050
vt 0.375025 0.281294
vt 0.812438 0.281294
vt 0.312538 0.250050
vt 0.812438 0.312537
vt 0.375025 0.312537
vt 0.312537 0.312537
vt 0.749950 0.312537
vt 0.250050 0.312537
vt 0.687463 0.312537
vt 0.187562 0.312537
vt 0.624975 0.312537
vt 0.125075 0.312537
vt 0.562488 0.312537
vt 0.062587 0.312537
vt 0.500000 0.312537
vt 0.999900 0.296916
vt 0.937413 0.312537
vt 0.000100 0.296916
vt 0.437512 0.312537
vt 0.874925 0.312537
vt 0.562488 0.343781
vt 0.125075 0.343781
vt 0.062587 0.343781
vt 0.500000 0.343781
vt 0.999900 0.328159
vt 0.937413 0.343781
vt 0.000100 0.328159
vt 0.437512 0.343781
vt 0.874925 0.343781
vt 0.375025 0.343781
vt 0.812438 0.343781
vt 0.312537 0.343781
vt 0.749950 0.343781
vt 0.250050 0.343781
vt 0.687463 0.343781
vt 0.187562 0.343781
vt 0.624975 0.343781
vt 0.375025 0.375025
vt 0.312537 0.375025
vt 0.749950 0.375025
vt 0.250050 0.375025
vt 0.687463 0.375025
vt 0.187563 0.375025
vt 0.624975 0.375025
vt 0.125075 0.375025
vt 0.562488 0.375025
vt 0.062587 0.375025
vt 0.500000 0.375025
vt 0.999900 0.359403
vt 0.937413 0.375025
vt 0.000100 0.359403
vt 0.437512 0.375025
vt 0.874925 0.375025
vt 0.812438 0.375025
vt 0.125075 0.406269
vt 0.062587 0.406269
vt 0.500000 0.406269
vt 0.999900 0.390647
vt 0.937413 0.406269
vt 0.000100 0.390647
vt 0.437512 0.406269
vt 0.874925 0.406269
vt 0.375025 0.406269
vt 0.812438 0.406269
vt 0.312537 0.406269
vt 0.749950 0.406269
vt 0.250050 0.406269
vt 0.687463 0.406269
vt 0.187563 0.406269
vt 0.624975 0.406269
vt 0.562488 0.406269
vt 0.749950 0.437512
vt 0.312537 0.437512
vt 0.250050 0.437512
vt 0.687463 0.437512
vt 0.187563 0.437512
vt 0.624975 0.437512
vt 0.125075 0.437512
vt 0.562488 0.437512
vt 0.062587 0.437512
vt 0.500000 0.437512
vt 0.999900 0.421891
vt 0.937413 0.437512
vt 0.000100 0.421891
vt 0.437512 0.437512
vt 0.874925 0.437512
vt 0.375025 0.437512
vt 0.812438 0.437512
vt 0.500000 0.468756
vt 0.999900 0.453134
vt 0.937413 0.468756
vt 0.000100 0.453134
vt 0.062587 0.468756
vt 0.437512 0.468756
vt 0.874925 0.468756
vt 0.375025 0.468756
vt 0.812438 0.468756
vt 0.312537 0.468756
vt 0.749950 0.468756
vt 0.250050 0.468756
vt 0.687463 0.468756
vt 0.187563 0.468756
vt 0.624975 0.468756
vt 0.125075 0.468756
vt 0.562488 0.468756
vt 0.312537 0.500000
vt 0.250050 0.500000
vt 0.687463 0.500000
vt 0.187563 0.500000
vt 0.624975 0.500000
vt 0.125075 0.500000
vt 0.562488 0.500000
vt 0.062587 0.500000
vt 0.500000 0.500000
vt 0.999900 0.484378
vt 0.937413 0.500000
vt 0.000100 0.484378
vt 0.437512 0.500000
vt 0.874925 0.500000
vt 0.375025 0.500000
vt 0.812438 0.500000
vt 0.749950 0.500000
vt 0.000100 0.515622
vt 0.062587 0.531244
vt 0.437512 0.531244
vt 0.937413 0.531244
vt 0.874925 0.531244
vt 0.375025 0.531244
vt 0.812438 0.531244
vt 0.312537 0.531244
vt 0.749950 0.531244
vt 0.250050 0.531244
vt 0.687463 0.531244
vt 0.187563 0.531244
vt 0.624975 0.531244
vt 0.125075 0.531244
vt 0.562488 0.531244
vt 0.500000 0.531244
vt 0.999900 0.515622
vt 0.187563 0.562488
vt 0.687463 0.562488
vt 0.624975 0.562488
vt 0.125075 0.562488
vt 0.562488 0.562488
vt 0.062587 0.562487
vt 0.500000 0.562488
vt 0.999900 0.546866
vt 0.937413 0.562487
vt 0.000100 0.546866
vt 0.437512 0.562488
vt 0.874925 0.562488
vt 0.375025 0.562488
vt 0.812438 0.562488
vt 0.312537 0.562488
vt 0.749950 0.562488
vt 0.250050 0.562488
vt 0.937413 0.593731
vt 0.874925 0.593731
vt 0.375025 0.593731
vt 0.812438 0.593731
vt 0.312537 0.593731
vt 0.749950 0.593731
vt 0.250050 0.593731
vt 0.687463 0.593731
vt 0.187563 0.593731
vt 0.624975 0.593731
vt 0.125075 0.593731
vt 0.562488 0.593731
vt 0.062587 0.593731
vt 0.500000 0.593731
vt 0.999900 0.578109
vt 0.000100 0.578109
vt 0.437512 0.593731
vt 0.687463 0.624975
vt 0.624975 0.624975
vt 0.125075 0.624975
vt 0.562488 0.624975
vt 0.062587 0.624975
vt 0.500000 0.624975
vt 0.999900 0.609353
vt 0.937413 0.624975
vt 0.000100 0.609353
vt 0.437512 0.624975
vt 0.874925 0.624975
vt 0.375025 0.624975
vt 0.812438 0.624975
vt 0.312537 0.624975
vt 0.749950 0.624975
vt 0.250050 0.624975
vt 0.187563 0.624975
vt 0.375025 0.656219
vt 0.874925 0.656219
vt 0.812438 0.656219
vt 0.312537 0.656219
vt 0.749950 0.656219
vt 0.250050 0.656219
vt 0.687463 0.656219
vt 0.187563 0.656219
vt 0.624975 0.656219
vt 0.125075 0.656219
vt 0.562488 0.656219
vt 0.062587 0.656219
vt 0.500000 0.656219
vt 0.999900 0.640597
vt 0.937413 0.656219
vt 0.000100 0.640597
vt 0.437512 0.656219
vt 0.125075 0.687463
vt 0.624975 0.687463
vt 0.562488 0.687463
vt 0.062587 0.687463
vt 0.500000 0.687463
vt 0.999900 0.671841
vt 0.937413 0.687462
vt 0.000100 0.671841
vt 0.437512 0.687463
vt 0.874925 0.687462
vt 0.375025 0.687463
vt 0.812438 0.687463
vt 0.312537 0.687463
vt 0.749950 0.687463
vt 0.250050 0.687463
vt 0.687463 0.687463
vt 0.187563 0.687463
vt 0.874925 0.718706
vt 0.812438 0.718706
vt 0.312537 0.718706
vt 0.749950 0.718706
vt 0.250050 0.718706
vt 0.687463 0.718706
vt 0.187563 0.718706
vt 0.624975 0.718706
vt 0.125075 0.718706
vt 0.562488 0.718706
vt 0.062587 0.718706
vt 0.500000 0.718706
vt 0.999900 0.703084
vt 0.937413 0.718706
vt 0.000100 0.703084
vt 0.437512 0.718706
vt 0.375025 0.718706
vt 0.624975 0.749950
vt 0.562488 0.749950
vt 0.062587 0.749950
vt 0.500000 0.749950
vt 0.999900 0.734328
vt 0.937413 0.749950
vt 0.000100 0.734328
vt 0.437512 0.749950
vt 0.874925 0.749950
vt 0.375025 0.749950
vt 0.812438 0.749950
vt 0.312537 0.749950
vt 0.749950 0.749950
vt 0.250050 0.749950
vt 0.687463 0.749950
vt 0.187563 0.749950
vt 0.125075 0.749950
vt 0.375025 0.781194
vt 0.312537 0.781194
vt 0.749950 0.781194
vt 0.250050 0.781194
vt 0.687463 0.781194
vt 0.187563 0.781194
vt 0.624975 0.781194
vt 0.125075 0.781194
vt 0.562488 0.781194
vt 0.062587 0.781194
vt 0.500000 0.781194
vt 0.999900 0.765572
vt 0.937413 0.781194
vt 0.000100 0.765572
vt 0.437512 0.781194
vt 0.874925 0.781194
vt 0.812438 0.781194
vt 0.125075 0.812438
vt 0.062587 0.812438
vt 0.500000 0.812438
vt 0.999900 0.796816
vt 0.937413 0.812437
vt 0.000100 0.796816
vt 0.437512 0.812438
vt 0.874925 0.812437
vt 0.375025 0.812437
vt 0.812438 0.812438
vt 0.312537 0.812437
vt 0.749950 0.812437
vt 0.250050 0.812438
vt 0.687463 0.812437
vt 0.187563 0.812438
vt 0.624975 0.812437
vt 0.562488 0.812438
vt 0.312537 0.843681
vt 0.250050 0.843681
vt 0.687463 0.843681
vt 0.187562 0.843681
vt 0.624975 0.843681
vt 0.125075 0.843681
vt 0.562488 0.843681
vt 0.062587 0.843681
vt 0.500000 0.843681
vt 0.999900 0.828059
vt 0.937413 0.843681
vt 0.000100 0.828059
vt 0.437512 0.843681
vt 0.874925 0.843681
vt 0.375025 0.843681
vt 0.812438 0.843681
vt 0.749950 0.843681
vt 0.999900 0.859303
vt 0.937413 0.874925
vt 0.000100 0.859303
vt 0.062587 0.874925
vt 0.500000 0.874925
vt 0.437513 0.874925
vt 0.874925 0.874925
vt 0.375025 0.874925
vt 0.812438 0.874925
vt 0.312537 0.874925
vt 0.749950 0.874925
vt 0.250050 0.874925
vt 0.687463 0.874925
vt 0.187562 0.874925
vt 0.624975 0.874925
vt 0.125075 0.874925
vt 0.562488 0.874925
vt 0.687463 0.906169
vt 0.250050 0.906169
vt 0.187562 0.906169
vt 0.624975 0.906169
vt 0.125075 0.906169
vt 0.562488 0.906169
vt 0.062587 0.906169
vt 0.500000 0.906169
vt 0.999900 0.890547
vt 0.937413 0.906169
vt 0.000100 0.890547
vt 0.437513 0.906169
vt 0.874925 0.906169
vt 0.375025 0.906169
vt 0.812438 0.906169
vt 0.312537 0.906169
vt 0.749950 0.906169
vt 0.500000 0.937413
vt 0.437513 0.937412
vt 0.874925 0.937412
vt 0.375025 0.937412
vt 0.812438 0.937412
vt 0.312537 0.937412
vt 0.749950 0.937412
vt 0.250050 0.937412
vt 0.687463 0.937412
vt 0.187562 0.937412
vt 0.624975 0.937412
vt 0.125075 0.937412
vt 0.562488 0.937412
vt 0.062587 0.937412
vt 0.999900 0.921791
vt 0.937413 0.937412
vt 0.000100 0.921791
vt 0.250050 0.968656
vt 0.187562 0.968656
vt 0.624975 0.968656
vt 0.125075 0.968656
vt 0.562488 0.968656
vt 0.062587 0.968656
vt 0.500000 0.968656
vt 0.999900 0.953034
vt 0.937413 0.968656
vt 0.000100 0.953034
vt 0.437513 0.968656
vt 0.874925 0.968656
vt 0.375025 0.968656
vt 0.812438 0.968656
vt 0.312537 0.968656
vt 0.749950 0.968656
vt 0.687463 0.968656
vt 0.874925 0.999900
vt 0.437513 0.999900
vt 0.375025 0.999900
vt 0.812438 0.999900
vt 0.312537 0.999900
vt 0.749950 0.999900
vt 0.250050 0.999900
vt 0.687463 0.999900
vt 0.187562 0.999900
vt 0.624975 0.999900
vt 0.125075 0.999900
vt 0.562488 0.999900
vt 0.062587 0.999900
vt 0.500000 0.999900
vt 0.999900 0.984278
vt 0.937413 0.999900
vt 0.000100 0.984278
vt 0.624975 0.000100
vt 0.687463 0.031344
vt 0.624975 0.031344
vt 0.187562 0.000100
vt 0.125075 0.031344
vt 0.125075 0.000100
vt 0.562487 0.000100
vt 0.562488 0.031344
vt 0.062587 0.031344
vt 0.062587 0.000100
vt 0.500000 0.000100
vt 0.500000 0.031344
vt 0.937413 0.000100
vt 0.999900 0.015722
vt 0.937413 0.031344
vt 0.000100 0.015722
vt 0.437512 0.031344
vt 0.437512 0.000100
vt 0.874925 0.000100
vt 0.874925 0.031344
vt 0.375025 0.031344
vt 0.375025 0.000100
vt 0.812438 0.000100
vt 0.812438 0.031344
vt 0.312537 0.031344
vt 0.312537 0.000100
vt 0.749950 0.000100
vt 0.749950 0.031344
vt 0.250050 0.031344
vt 0.250050 0.000100
vt 0.687463 0.000100
vt 0.187562 0.031344
vt 0.375025 0.062587
vt 0.874925 0.062587
vt 0.812438 0.062588
vt 0.312537 0.062588
vt 0.749950 0.062587
vt 0.250050 0.062587
vt 0.687463 0.062588
vt 0.187562 0.062588
vt 0.624975 0.062587
vt 0.125075 0.062587
vt 0.562488 0.062588
vt 0.062587 0.062587
vt 0.500000 0.062588
vt 0.999900 0.046966
vt 0.937413 0.062587
vt 0.000100 0.046966
vt 0.437512 0.062588
vt 0.125075 0.093831
vt 0.624975 0.093831
vt 0.562488 0.093831
vt 0.062587 0.093831
vt 0.500000 0.093831
vt 0.999900 0.078209
vt 0.937413 0.093831
vt 0.000100 0.078209
vt 0.437512 0.093831
vt 0.874925 0.093831
vt 0.375025 0.093831
vt 0.812438 0.093831
vt 0.312537 0.093831
vt 0.749950 0.093831
vt 0.250050 0.093831
vt 0.687463 0.093831
vt 0.187562 0.093831
vt 0.312537 0.125075
vt 0.812438 0.125075
vt 0.749950 0.125075
vt 0.250050 0.125075
vt 0.687463 0.125075
vt 0.187562 0.125075
vt 0.624975 0.125075
vt 0.125075 0.125075
vt 0.562488 0.125075
vt 0.062587 0.125075
vt 0.500000 0.125075
vt 0.999900 0.109453
vt 0.937413 0.125075
vt 0.000100 0.109453
vt 0.437512 0.125075
vt 0.874925 0.125075
vt 0.375025 0.125075
vt 0.062587 0.156319
vt 0.562488 0.156319
vt 0.500000 0.156319
vt 0.999900 0.140697
vt 0.937413 0.156319
vt 0.000100 0.140697
vt 0.437512 0.156319
vt 0.874925 0.156319
vt 0.375025 0.156319
vt 0.812438 0.156319
vt 0.312537 0.156319
vt 0.749950 0.156319
vt 0.250050 0.156319
vt 0.687463 0.156319
vt 0.187562 0.156319
vt 0.624975 0.156319
vt 0.125075 0.156319
vt 0.812438 0.187563
vt 0.749950 0.187562
vt 0.250050 0.187562
vt 0.687463 0.187563
vt 0.187562 0.187563
vt 0.624975 0.187562
vt 0.125075 0.187562
vt 0.562488 0.187563
vt 0.062587 0.187562
vt 0.500000 0.187563
vt 0.999900 0.171941
vt 0.937413 0.187562
vt 0.000100 0.171941
vt 0.437512 0.187563
vt 0.874925 0.187562
vt 0.375025 0.187562
vt 0.312537 0.187563
vt 0.562488 0.218806
vt 0.500000 0.218806
vt 0.999900 0.203184
vt 0.937413 0.218806
vt 0.000100 0.203184
vt 0.062587 0.218806
vt 0.437512 0.218806
vt 0.874925 0.218806
vt 0.375025 0.218806
vt 0.812438 0.218806
vt 0.312537 0.218806
vt 0.749950 0.218806
vt 0.250050 0.218806
vt 0.687463 0.218806
vt 0.187562 0.218806
vt 0.624975 0.218806
vt 0.125075 0.218806
vt 0.999900 0.234428
vt 0.000100 0.234428
s 0
usemtl マテリアル.001
f 1/1/1 10/2/1 476/3/1
f 479/4/2 17/5/2 18/6/2
f 476/3/3 11/7/3 2/8/3
f 480/9/4 18/6/4 19/10/4
f 2/8/5 12/11/5 477/12/5
f 481/13/6 19/10/6 20/14/6
f 477/12/7 13/15/7 3/16/7
f 482/17/8 20/14/8 21/18/8
f 3/16/9 14/19/9 4/20/9
f 474/21/10 82/22/10 7/23/10
f 308/24/11 482/17/11 21/18/11
f 5/25/12 14/19/12 15/26/12
f 474/21/13 8/27/13 475/28/13
f 478/29/14 15/26/14 16/30/14
f 475/28/15 9/31/15 1/1/15
f 6/32/16 16/30/16 17/5/16
f 8/27/17 24/33/17 9/31/17
f 17/5/18 31/34/18 32/35/18
f 9/31/19 25/36/19 10/2/19
f 18/6/20 32/35/20 33/37/20
f 10/2/21 26/38/21 11/7/21
f 19/10/22 33/37/22 34/39/22
f 11/7/23 27/40/23 12/11/23
f 20/14/24 34/39/24 35/41/24
f 12/11/25 28/42/25 13/15/25
f 21/18/26 35/41/26 36/43/26
f 13/15/27 29/44/27 14/19/27
f 7/23/28 82/45/28 22/46/28
f 308/47/29 21/18/29 36/43/29
f 15/26/30 29/44/30 30/48/30
f 7/23/31 23/49/31 8/27/31
f 16/30/32 30/48/32 31/34/32
f 27/40/33 43/50/33 28/42/33
f 36/43/34 50/51/34 51/52/34
f 28/42/35 44/53/35 29/44/35
f 22/46/36 82/54/36 37/55/36
f 308/56/37 36/43/37 51/52/37
f 30/48/38 44/53/38 45/57/38
f 22/46/39 38/58/39 23/49/39
f 31/34/40 45/57/40 46/59/40
f 23/49/41 39/60/41 24/33/41
f 32/35/42 46/59/42 47/61/42
f 24/33/43 40/62/43 25/36/43
f 33/37/44 47/61/44 48/63/44
f 25/36/45 41/64/45 26/38/45
f 34/39/46 48/63/46 49/65/46
f 26/38/47 42/66/47 27/40/47
f 35/41/48 49/65/48 50/51/48
f 47/61/49 61/67/49 62/68/49
f 39/60/50 55/69/50 40/62/50
f 48/63/51 62/68/51 63/70/51
f 40/62/52 56/71/52 41/64/52
f 49/65/53 63/70/53 64/72/53
f 41/64/54 57/73/54 42/66/54
f 50/51/55 64/72/55 65/74/55
f 42/66/56 58/75/56 43/50/56
f 51/52/57 65/74/57 66/76/57
f 43/50/58 59/77/58 44/53/58
f 37/55/59 82/78/59 52/79/59
f 308/80/60 51/52/60 66/76/60
f 45/57/61 59/77/61 60/81/61
f 37/55/62 53/82/62 38/58/62
f 46/59/63 60/81/63 61/67/63
f 38/58/64 54/83/64 39/60/64
f 66/76/65 80/84/65 81/85/65
f 58/75/66 74/86/66 59/77/66
f 52/79/67 82/87/67 67/88/67
f 308/89/68 66/76/68 81/85/68
f 60/81/69 74/86/69 75/90/69
f 52/79/70 68/91/70 53/82/70
f 61/67/71 75/90/71 76/92/71
f 53/82/72 69/93/72 54/83/72
f 62/68/73 76/92/73 77/94/73
f 54/83/74 70/95/74 55/69/74
f 63/70/75 77/94/75 78/96/75
f 55/69/76 71/97/76 56/71/76
f 64/72/77 78/96/77 79/98/77
f 56/71/78 72/99/78 57/73/78
f 65/74/79 79/98/79 80/84/79
f 57/73/80 73/100/80 58/75/80
f 69/93/81 86/101/81 70/95/81
f 78/96/82 93/102/82 94/103/82
f 70/95/83 87/104/83 71/97/83
f 79/98/84 94/103/84 95/105/84
f 71/97/85 88/106/85 72/99/85
f 80/84/86 95/105/86 96/107/86
f 72/99/87 89/108/87 73/100/87
f 81/85/88 96/107/88 97/109/88
f 73/100/89 90/110/89 74/86/89
f 67/88/90 82/111/90 83/112/90
f 308/113/91 81/85/91 97/109/91
f 75/90/92 90/110/92 91/114/92
f 67/88/93 84/115/93 68/91/93
f 76/92/94 91/114/94 92/116/94
f 68/91/95 85/117/95 69/93/95
f 77/94/96 92/116/96 93/102/96
f 89/108/97 105/118/97 90/110/97
f 83/112/98 82/119/98 98/120/98
f 308/121/99 97/109/99 112/122/99
f 91/114/100 105/118/100 106/123/100
f 83/112/101 99/124/101 84/115/101
f 92/116/102 106/123/102 107/125/102
f 84/115/103 100/126/103 85/117/103
f 93/102/104 107/125/104 108/127/104
f 85/117/105 101/128/105 86/101/105
f 94/103/106 108/127/106 109/129/106
f 86/101/107 102/130/107 87/104/107
f 95/105/108 109/129/108 110/131/108
f 87/104/109 103/132/109 88/106/109
f 96/107/110 110/131/110 111/133/110
f 88/106/111 104/134/111 89/108/111
f 97/109/112 111/133/112 112/122/112
f 109/129/113 123/135/113 124/136/113
f 101/128/114 117/137/114 102/130/114
f 110/131/115 124/136/115 125/138/115
f 102/130/116 118/139/116 103/132/116
f 111/133/117 125/138/117 126/140/117
f 103/132/118 119/141/118 104/134/118
f 112/122/119 126/140/119 127/142/119
f 104/134/120 120/143/120 105/118/120
f 98/120/121 82/144/121 113/145/121
f 308/146/122 112/122/122 127/142/122
f 106/123/123 120/143/123 121/147/123
f 98/120/124 114/148/124 99/124/124
f 107/125/125 121/147/125 122/149/125
f 99/124/126 115/150/126 100/126/126
f 108/127/127 122/149/127 123/135/127
f 100/126/128 116/151/128 101/128/128
f 308/152/129 127/142/129 142/153/129
f 120/143/130 136/154/130 121/147/130
f 114/148/131 128/155/131 129/156/131
f 121/147/132 137/157/132 122/149/132
f 115/150/133 129/156/133 130/158/133
f 122/149/134 138/159/134 123/135/134
f 116/151/135 130/158/135 131/160/135
f 123/135/136 139/161/136 124/136/136
f 117/137/137 131/160/137 132/162/137
f 124/136/138 140/163/138 125/138/138
f 118/139/139 132/162/139 133/164/139
f 125/138/140 141/165/140 126/140/140
f 119/141/141 133/164/141 134/166/141
f 126/140/142 142/153/142 127/142/142
f 120/143/143 134/166/143 135/167/143
f 113/145/144 82/168/144 128/155/144
f 139/161/145 155/169/145 140/163/145
f 133/164/146 147/170/146 148/171/146
f 140/163/147 156/172/147 141/165/147
f 134/166/148 148/171/148 149/173/148
f 141/165/149 157/174/149 142/153/149
f 135/167/150 149/173/150 150/175/150
f 128/155/151 82/176/151 143/177/151
f 308/178/152 142/153/152 157/174/152
f 135/167/153 151/179/153 136/154/153
f 129/156/154 143/177/154 144/180/154
f 136/154/155 152/181/155 137/157/155
f 130/158/156 144/180/156 145/182/156
f 137/157/157 153/183/157 138/159/157
f 131/160/158 145/182/158 146/184/158
f 138/159/159 154/185/159 139/161/159
f 132/162/160 146/184/160 147/170/160
f 144/180/161 158/186/161 159/187/161
f 151/179/162 167/188/162 152/181/162
f 145/182/163 159/187/163 160/189/163
f 152/181/164 168/190/164 153/183/164
f 146/184/165 160/189/165 161/191/165
f 153/183/166 169/192/166 154/185/166
f 147/170/167 161/191/167 162/193/167
f 154/185/168 170/194/168 155/169/168
f 148/171/169 162/193/169 163/195/169
f 155/169/170 171/196/170 156/172/170
f 149/173/171 163/195/171 164/197/171
f 156/172/172 172/198/172 157/174/172
f 150/175/173 164/197/173 165/199/173
f 143/177/174 82/200/174 158/186/174
f 308/201/175 157/174/175 172/198/175
f 150/175/176 166/202/176 151/179/176
f 163/195/177 177/203/177 178/204/177
f 170/194/178 186/205/178 171/196/178
f 164/197/179 178/204/179 179/206/179
f 171/196/180 187/207/180 172/198/180
f 165/199/181 179/206/181 180/208/181
f 158/186/182 82/209/182 173/210/182
f 308/211/183 172/198/183 187/207/183
f 165/199/184 181/212/184 166/202/184
f 159/187/185 173/210/185 174/213/185
f 166/202/186 182/214/186 167/188/186
f 160/189/187 174/213/187 175/215/187
f 167/188/188 183/216/188 168/190/188
f 161/191/189 175/215/189 176/217/189
f 168/190/190 184/218/190 169/192/190
f 162/193/191 176/217/191 177/203/191
f 169/192/192 185/219/192 170/194/192
f 181/212/193 197/220/193 182/214/193
f 175/215/194 189/221/194 190/222/194
f 182/214/195 198/223/195 183/216/195
f 176/217/196 190/222/196 191/224/196
f 183/216/197 199/225/197 184/218/197
f 177/203/198 191/224/198 192/226/198
f 184/218/199 200/227/199 185/219/199
f 178/204/200 192/226/200 193/228/200
f 185/219/201 201/229/201 186/205/201
f 179/206/202 193/228/202 194/230/202
f 186/205/203 202/231/203 187/207/203
f 180/208/204 194/230/204 195/232/204
f 173/210/205 82/233/205 188/234/205
f 308/235/206 187/207/206 202/231/206
f 180/208/207 196/236/207 181/212/207
f 174/213/208 188/234/208 189/221/208
f 200/227/209 216/237/209 201/229/209
f 194/230/210 208/238/210 209/239/210
f 201/229/211 217/240/211 202/231/211
f 195/232/212 209/239/212 210/241/212
f 188/234/213 82/242/213 203/243/213
f 308/244/214 202/231/214 217/240/214
f 195/232/215 211/245/215 196/236/215
f 189/221/216 203/243/216 204/246/216
f 196/236/217 212/247/217 197/220/217
f 190/222/218 204/246/218 205/248/218
f 197/220/219 213/249/219 198/223/219
f 191/224/220 205/248/220 206/250/220
f 198/223/221 214/251/221 199/225/221
f 192/226/222 206/250/222 207/252/222
f 199/225/223 215/253/223 200/227/223
f 193/228/224 207/252/224 208/238/224
f 205/248/225 219/254/225 220/255/225
f 212/247/226 228/256/226 213/249/226
f 206/250/227 220/255/227 221/257/227
f 213/249/228 229/258/228 214/251/228
f 207/252/229 221/257/229 222/259/229
f 214/251/230 230/260/230 215/253/230
f 208/238/231 222/259/231 223/261/231
f 215/253/232 231/262/232 216/237/232
f 209/239/233 223/261/233 224/263/233
f 216/237/234 232/264/234 217/240/234
f 210/241/235 224/263/235 225/265/235
f 203/243/236 82/266/236 218/267/236
f 308/268/237 217/240/237 232/264/237
f 210/241/238 226/269/238 211/245/238
f 204/246/239 218/267/239 219/254/239
f 211/245/240 227/270/240 212/247/240
f 224/263/241 238/271/241 239/272/241
f 231/262/242 247/273/242 232/264/242
f 225/265/243 239/272/243 240/274/243
f 218/267/244 82/275/244 233/276/244
f 308/277/245 232/264/245 247/273/245
f 225/265/246 241/278/246 226/269/246
f 219/254/247 233/276/247 234/279/247
f 226/269/248 242/280/248 227/270/248
f 220/255/249 234/279/249 235/281/249
f 227/270/250 243/282/250 228/256/250
f 221/257/251 235/281/251 236/283/251
f 228/256/252 244/284/252 229/258/252
f 222/259/253 236/283/253 237/285/253
f 229/258/254 245/286/254 230/260/254
f 223/261/255 237/285/255 238/271/255
f 230/260/256 246/287/256 231/262/256
f 243/282/257 257/288/257 258/289/257
f 235/281/258 251/290/258 236/283/258
f 244/284/259 258/289/259 259/291/259
f 236/283/260 252/292/260 237/285/260
f 245/286/261 259/291/261 260/293/261
f 237/285/262 253/294/262 238/271/262
f 246/287/263 260/293/263 261/295/263
f 238/271/264 254/296/264 239/272/264
f 247/273/265 261/295/265 262/297/265
f 239/272/266 255/298/266 240/274/266
f 233/276/267 82/299/267 248/300/267
f 308/301/268 247/273/268 262/297/268
f 241/278/269 255/298/269 256/302/269
f 233/276/270 249/303/270 234/279/270
f 242/280/271 256/302/271 257/288/271
f 234/279/272 250/304/272 235/281/272
f 262/297/273 276/305/273 277/306/273
f 254/296/274 270/307/274 255/298/274
f 248/300/275 82/308/275 263/309/275
f 308/310/276 262/297/276 277/306/276
f 256/302/277 270/307/277 271/311/277
f 248/300/278 264/312/278 249/303/278
f 257/288/279 271/311/279 272/313/279
f 249/303/280 265/314/280 250/304/280
f 258/289/281 272/313/281 273/315/281
f 250/304/282 266/316/282 251/290/282
f 259/291/283 273/315/283 274/317/283
f 251/290/284 267/318/284 252/292/284
f 260/293/285 274/317/285 275/319/285
f 252/292/286 268/320/286 253/294/286
f 261/295/287 275/319/287 276/305/287
f 253/294/288 269/321/288 254/296/288
f 274/317/289 288/322/289 289/323/289
f 266/316/290 282/324/290 267/318/290
f 275/319/291 289/323/291 290/325/291
f 267/318/292 283/326/292 268/320/292
f 276/305/293 290/325/293 291/327/293
f 268/320/294 284/328/294 269/321/294
f 277/306/295 291/327/295 292/329/295
f 269/321/296 285/330/296 270/307/296
f 263/309/297 82/331/297 278/332/297
f 308/333/298 277/306/298 292/329/298
f 271/311/299 285/330/299 286/334/299
f 263/309/300 279/335/300 264/312/300
f 272/313/301 286/334/301 287/336/301
f 264/312/302 280/337/302 265/314/302
f 273/315/303 287/336/303 288/322/303
f 265/314/304 281/338/304 266/316/304
f 278/332/305 82/339/305 293/340/305
f 308/341/306 292/329/306 307/342/306
f 286/334/307 300/343/307 301/344/307
f 278/332/308 294/345/308 279/335/308
f 287/336/309 301/344/309 302/346/309
f 279/335/310 295/347/310 280/337/310
f 288/322/311 302/346/311 303/348/311
f 280/337/312 296/349/312 281/338/312
f 289/323/313 303/348/313 304/350/313
f 281/338/314 297/351/314 282/324/314
f 290/325/315 304/350/315 305/352/315
f 282/324/316 298/353/316 283/326/316
f 291/327/317 305/352/317 306/354/317
f 283/326/318 299/355/318 284/328/318
f 292/329/319 306/354/319 307/342/319
f 284/328/320 300/343/320 285/330/320
f 296/349/321 313/356/321 297/351/321
f 305/352/322 320/357/322 321/358/322
f 297/351/323 314/359/323 298/353/323
f 306/354/324 321/358/324 322/360/324
f 298/353/325 315/361/325 299/355/325
f 307/342/326 322/360/326 323/362/326
f 299/355/327 316/363/327 300/343/327
f 293/340/328 82/364/328 309/365/328
f 308/366/329 307/342/329 323/362/329
f 301/344/330 316/363/330 317/367/330
f 293/340/331 310/368/331 294/345/331
f 302/346/332 317/367/332 318/369/332
f 294/345/333 311/370/333 295/347/333
f 303/348/334 318/369/334 319/371/334
f 295/347/335 312/372/335 296/349/335
f 304/350/336 319/371/336 320/357/336
f 317/367/337 331/373/337 332/374/337
f 309/365/338 325/375/338 310/368/338
f 318/369/339 332/374/339 333/376/339
f 310/368/340 326/377/340 311/370/340
f 319/371/341 333/376/341 334/378/341
f 311/370/342 327/379/342 312/372/342
f 320/357/343 334/378/343 335/380/343
f 312/372/344 328/381/344 313/356/344
f 321/358/345 335/380/345 336/382/345
f 313/356/346 329/383/346 314/359/346
f 322/360/347 336/382/347 337/384/347
f 314/359/348 330/385/348 315/361/348
f 323/362/349 337/384/349 338/386/349
f 315/361/350 331/373/350 316/363/350
f 309/365/351 82/387/351 324/388/351
f 308/389/352 323/362/352 338/386/352
f 336/382/353 350/390/353 351/391/353
f 328/381/354 344/392/354 329/383/354
f 337/384/355 351/391/355 352/393/355
f 329/383/356 345/394/356 330/385/356
f 338/386/357 352/393/357 353/395/357
f 330/385/358 346/396/358 331/373/358
f 324/388/359 82/397/359 339/398/359
f 308/399/360 338/386/360 353/395/360
f 332/374/361 346/396/361 347/400/361
f 324/388/362 340/401/362 325/375/362
f 333/376/363 347/400/363 348/402/363
f 325/375/364 341/403/364 326/377/364
f 334/378/365 348/402/365 349/404/365
f 326/377/366 342/405/366 327/379/366
f 335/380/367 349/404/367 350/390/367
f 327/379/368 343/406/368 328/381/368
f 339/398/369 355/407/369 340/401/369
f 348/402/370 362/408/370 363/409/370
f 340/401/371 356/410/371 341/403/371
f 349/404/372 363/409/372 364/411/372
f 341/403/373 357/412/373 342/405/373
f 350/390/374 364/411/374 365/413/374
f 342/405/375 358/414/375 343/406/375
f 351/391/376 365/413/376 366/415/376
f 343/406/377 359/416/377 344/392/377
f 352/393/378 366/415/378 367/417/378
f 344/392/379 360/418/379 345/394/379
f 353/395/380 367/417/380 368/419/380
f 345/394/381 361/420/381 346/396/381
f 339/398/382 82/421/382 354/422/382
f 308/423/383 353/395/383 368/419/383
f 347/400/384 361/420/384 362/408/384
f 359/424/385 373/425/385 374/426/385
f 366/427/386 382/428/386 367/429/386
f 360/430/387 374/426/387 375/431/387
f 367/429/388 383/432/388 368/433/388
f 361/434/389 375/431/389 376/435/389
f 354/436/390 82/437/390 369/438/390
f 308/439/391 368/433/391 383/432/391
f 361/434/392 377/440/392 362/441/392
f 355/442/393 369/438/393 370/443/393
f 362/441/394 378/444/394 363/445/394
f 356/446/395 370/443/395 371/447/395
f 363/445/396 379/448/396 364/449/396
f 357/450/397 371/447/397 372/451/397
f 364/449/398 380/452/398 365/453/398
f 358/454/399 372/451/399 373/425/399
f 365/453/400 381/455/400 366/427/400
f 377/440/401 393/456/401 378/444/401
f 371/447/402 385/457/402 386/458/402
f 378/444/403 394/459/403 379/448/403
f 372/451/404 386/458/404 387/460/404
f 379/448/405 395/461/405 380/452/405
f 373/425/406 387/460/406 388/462/406
f 380/452/407 396/463/407 381/455/407
f 374/426/408 388/462/408 389/464/408
f 381/455/409 397/465/409 382/428/409
f 375/431/410 389/464/410 390/466/410
f 382/428/411 398/467/411 383/432/411
f 376/435/412 390/466/412 391/468/412
f 369/438/413 82/469/413 384/470/413
f 308/471/414 383/432/414 398/467/414
f 376/435/415 392/472/415 377/440/415
f 370/443/416 384/470/416 385/457/416
f 396/463/417 412/473/417 397/465/417
f 390/466/418 404/474/418 405/475/418
f 397/465/419 413/476/419 398/467/419
f 391/468/420 405/475/420 406/477/420
f 384/470/421 82/478/421 399/479/421
f 308/480/422 398/467/422 413/476/422
f 391/468/423 407/481/423 392/472/423
f 385/457/424 399/479/424 400/482/424
f 392/472/425 408/483/425 393/456/425
f 386/458/426 400/482/426 401/484/426
f 393/456/427 409/485/427 394/459/427
f 387/460/428 401/484/428 402/486/428
f 394/459/429 410/487/429 395/461/429
f 388/462/430 402/486/430 403/488/430
f 395/461/431 411/489/431 396/463/431
f 389/464/432 403/488/432 404/474/432
f 408/483/433 424/490/433 409/485/433
f 402/486/434 416/491/434 417/492/434
f 409/485/435 425/493/435 410/487/435
f 403/488/436 417/492/436 418/494/436
f 410/487/437 426/495/437 411/489/437
f 404/474/438 418/494/438 419/496/438
f 411/489/439 427/497/439 412/473/439
f 405/475/440 419/496/440 420/498/440
f 412/473/441 428/499/441 413/476/441
f 406/477/442 420/498/442 421/500/442
f 399/479/443 82/501/443 414/502/443
f 308/503/444 413/476/444 428/499/444
f 406/477/445 422/504/445 407/481/445
f 400/482/446 414/502/446 415/505/446
f 407/481/447 423/506/447 408/483/447
f 401/484/448 415/505/448 416/491/448
f 427/497/449 443/507/449 428/499/449
f 421/500/450 435/508/450 436/509/450
f 414/502/451 82/510/451 429/511/451
f 308/512/452 428/499/452 443/507/452
f 421/500/453 437/513/453 422/504/453
f 415/505/454 429/511/454 430/514/454
f 422/504/455 438/515/455 423/506/455
f 416/491/456 430/514/456 431/516/456
f 423/506/457 439/517/457 424/490/457
f 417/492/458 431/516/458 432/518/458
f 424/490/459 440/519/459 425/493/459
f 418/494/460 432/518/460 433/520/460
f 425/493/461 441/521/461 426/495/461
f 419/496/462 433/520/462 434/522/462
f 426/495/463 442/523/463 427/497/463
f 420/498/464 434/522/464 435/508/464
f 432/518/465 446/524/465 447/525/465
f 439/517/466 455/526/466 440/519/466
f 433/520/467 447/525/467 448/527/467
f 440/519/468 456/528/468 441/521/468
f 434/522/469 448/527/469 449/529/469
f 441/521/470 457/530/470 442/523/470
f 435/508/471 449/529/471 450/531/471
f 442/523/472 458/532/472 443/507/472
f 436/509/473 450/531/473 451/533/473
f 429/511/474 82/534/474 444/535/474
f 308/536/475 443/507/475 458/532/475
f 436/509/476 452/537/476 437/513/476
f 430/514/477 444/535/477 445/538/477
f 437/513/478 453/539/478 438/515/478
f 431/516/479 445/538/479 446/524/479
f 438/515/480 454/540/480 439/517/480
f 451/533/481 465/541/481 466/542/481
f 444/535/482 82/543/482 459/544/482
f 308/545/483 458/532/483 473/546/483
f 451/533/484 467/547/484 452/537/484
f 445/538/485 459/544/485 460/548/485
f 452/537/486 468/549/486 453/539/486
f 446/524/487 460/548/487 461/550/487
f 453/539/488 469/551/488 454/540/488
f 447/525/489 461/550/489 462/552/489
f 454/540/490 470/553/490 455/526/490
f 448/527/491 462/552/491 463/554/491
f 455/526/492 471/555/492 456/528/492
f 449/529/493 463/554/493 464/556/493
f 456/528/494 472/557/494 457/530/494
f 450/531/495 464/556/495 465/541/495
f 457/530/496 473/546/496 458/532/496
f 469/551/497 479/4/497 470/553/497
f 463/554/498 476/3/498 2/8/498
f 470/553/499 480/9/499 471/555/499
f 464/556/500 2/8/500 477/12/500
f 471/555/501 481/13/501 472/557/501
f 465/541/502 477/12/502 3/16/502
f 472/557/503 482/17/503 473/546/503
f 466/542/504 3/16/504 4/20/504
f 459/544/505 82/558/505 474/21/505
f 308/559/506 473/546/506 482/17/506
f 466/542/507 5/25/507 467/547/507
f 460/548/508 474/21/508 475/28/508
f 467/547/509 478/29/509 468/549/509
f 461/550/510 475/28/510 1/1/510
f 468/549/511 6/32/511 469/551/511
f 462/552/512 1/1/512 476/3/512
f 1/1/1 9/31/1 10/2/1
f 479/4/2 6/32/2 17/5/2
f 476/3/3 10/2/3 11/7/3
f 480/9/4 479/4/4 18/6/4
f 2/8/5 11/7/5 12/11/5
f 481/13/6 480/9/6 19/10/6
f 477/12/7 12/11/7 13/15/7
f 482/17/513 481/13/513 20/14/513
f 3/16/9 13/15/9 14/19/9
f 5/25/12 4/20/12 14/19/12
f 474/21/514 7/23/514 8/27/514
f 478/29/14 5/25/14 15/26/14
f 475/28/15 8/27/15 9/31/15
f 6/32/16 478/29/16 16/30/16
f 8/27/17 23/49/17 24/33/17
f 17/5/18 16/30/18 31/34/18
f 9/31/19 24/33/19 25/36/19
f 18/6/515 17/5/515 32/35/515
f 10/2/516 25/36/516 26/38/516
f 19/10/22 18/6/22 33/37/22
f 11/7/23 26/38/23 27/40/23
f 20/14/24 19/10/24 34/39/24
f 12/11/25 27/40/25 28/42/25
f 21/18/26 20/14/26 35/41/26
f 13/15/27 28/42/27 29/44/27
f 15/26/30 14/19/30 29/44/30
f 7/23/31 22/46/31 23/49/31
f 16/30/32 15/26/32 30/48/32
f 27/40/33 42/66/33 43/50/33
f 36/43/34 35/41/34 50/51/34
f 28/42/517 43/50/517 44/53/517
f 30/48/518 29/44/518 44/53/518
f 22/46/39 37/55/39 38/58/39
f 31/34/40 30/48/40 45/57/40
f 23/49/41 38/58/41 39/60/41
f 32/35/42 31/34/42 46/59/42
f 24/33/43 39/60/43 40/62/43
f 33/37/44 32/35/44 47/61/44
f 25/36/45 40/62/45 41/64/45
f 34/39/46 33/37/46 48/63/46
f 26/38/47 41/64/47 42/66/47
f 35/41/48 34/39/48 49/65/48
f 47/61/519 46/59/519 61/67/519
f 39/60/50 54/83/50 55/69/50
f 48/63/51 47/61/51 62/68/51
f 40/62/52 55/69/52 56/71/52
f 49/65/53 48/63/53 63/70/53
f 41/64/520 56/71/520 57/73/520
f 50/51/55 49/65/55 64/72/55
f 42/66/56 57/73/56 58/75/56
f 51/52/57 50/51/57 65/74/57
f 43/50/521 58/75/521 59/77/521
f 45/57/522 44/53/522 59/77/522
f 37/55/62 52/79/62 53/82/62
f 46/59/63 45/57/63 60/81/63
f 38/58/64 53/82/64 54/83/64
f 66/76/65 65/74/65 80/84/65
f 58/75/523 73/100/523 74/86/523
f 60/81/524 59/77/524 74/86/524
f 52/79/70 67/88/70 68/91/70
f 61/67/71 60/81/71 75/90/71
f 53/82/72 68/91/72 69/93/72
f 62/68/73 61/67/73 76/92/73
f 54/83/74 69/93/74 70/95/74
f 63/70/75 62/68/75 77/94/75
f 55/69/76 70/95/76 71/97/76
f 64/72/77 63/70/77 78/96/77
f 56/71/78 71/97/78 72/99/78
f 65/74/79 64/72/79 79/98/79
f 57/73/80 72/99/80 73/100/80
f 69/93/81 85/117/81 86/101/81
f 78/96/82 77/94/82 93/102/82
f 70/95/83 86/101/83 87/104/83
f 79/98/84 78/96/84 94/103/84
f 71/97/525 87/104/525 88/106/525
f 80/84/526 79/98/526 95/105/526
f 72/99/87 88/106/87 89/108/87
f 81/85/88 80/84/88 96/107/88
f 73/100/527 89/108/527 90/110/527
f 75/90/528 74/86/528 90/110/528
f 67/88/93 83/112/93 84/115/93
f 76/92/94 75/90/94 91/114/94
f 68/91/529 84/115/529 85/117/529
f 77/94/530 76/92/530 92/116/530
f 89/108/97 104/134/97 105/118/97
f 91/114/100 90/110/100 105/118/100
f 83/112/101 98/120/101 99/124/101
f 92/116/531 91/114/531 106/123/531
f 84/115/103 99/124/103 100/126/103
f 93/102/104 92/116/104 107/125/104
f 85/117/532 100/126/532 101/128/532
f 94/103/106 93/102/106 108/127/106
f 86/101/107 101/128/107 102/130/107
f 95/105/533 94/103/533 109/129/533
f 87/104/109 102/130/109 103/132/109
f 96/107/110 95/105/110 110/131/110
f 88/106/534 103/132/534 104/134/534
f 97/109/112 96/107/112 111/133/112
f 109/129/113 108/127/113 123/135/113
f 101/128/114 116/151/114 117/137/114
f 110/131/535 109/129/535 124/136/535
f 102/130/116 117/137/116 118/139/116
f 111/133/536 110/131/536 125/138/536
f 103/132/118 118/139/118 119/141/118
f 112/122/119 111/133/119 126/140/119
f 104/134/120 119/141/120 120/143/120
f 106/123/123 105/118/123 120/143/123
f 98/120/124 113/145/124 114/148/124
f 107/125/125 106/123/125 121/147/125
f 99/124/537 114/148/537 115/150/537
f 108/127/127 107/125/127 122/149/127
f 100/126/538 115/150/538 116/151/538
f 120/143/130 135/167/130 136/154/130
f 114/148/131 113/145/131 128/155/131
f 121/147/132 136/154/132 137/157/132
f 115/150/539 114/148/539 129/156/539
f 122/149/134 137/157/134 138/159/134
f 116/151/540 115/150/540 130/158/540
f 123/135/136 138/159/136 139/161/136
f 117/137/137 116/151/137 131/160/137
f 124/136/541 139/161/541 140/163/541
f 118/139/139 117/137/139 132/162/139
f 125/138/542 140/163/542 141/165/542
f 119/141/141 118/139/141 133/164/141
f 126/140/142 141/165/142 142/153/142
f 120/143/143 119/141/143 134/166/143
f 139/161/543 154/185/543 155/169/543
f 133/164/544 132/162/544 147/170/544
f 140/163/147 155/169/147 156/172/147
f 134/166/545 133/164/545 148/171/545
f 141/165/149 156/172/149 157/174/149
f 135/167/150 134/166/150 149/173/150
f 135/167/153 150/175/153 151/179/153
f 129/156/154 128/155/154 143/177/154
f 136/154/546 151/179/546 152/181/546
f 130/158/156 129/156/156 144/180/156
f 137/157/157 152/181/157 153/183/157
f 131/160/547 130/158/547 145/182/547
f 138/159/159 153/183/159 154/185/159
f 132/162/160 131/160/160 146/184/160
f 144/180/161 143/177/161 158/186/161
f 151/179/162 166/202/162 167/188/162
f 145/182/548 144/180/548 159/187/548
f 152/181/549 167/188/549 168/190/549
f 146/184/165 145/182/165 160/189/165
f 153/183/166 168/190/166 169/192/166
f 147/170/167 146/184/167 161/191/167
f 154/185/168 169/192/168 170/194/168
f 148/171/550 147/170/550 162/193/550
f 155/169/551 170/194/551 171/196/551
f 149/173/171 148/171/171 163/195/171
f 156/172/172 171/196/172 172/198/172
f 150/175/552 149/173/552 164/197/552
f 150/175/553 165/199/553 166/202/553
f 163/195/177 162/193/177 177/203/177
f 170/194/178 185/219/178 186/205/178
f 164/197/179 163/195/179 178/204/179
f 171/196/180 186/205/180 187/207/180
f 165/199/554 164/197/554 179/206/554
f 165/199/555 180/208/555 181/212/555
f 159/187/185 158/186/185 173/210/185
f 166/202/186 181/212/186 182/214/186
f 160/189/187 159/187/187 174/213/187
f 167/188/188 182/214/188 183/216/188
f 161/191/189 160/189/189 175/215/189
f 168/190/190 183/216/190 184/218/190
f 162/193/191 161/191/191 176/217/191
f 169/192/192 184/218/192 185/219/192
f 181/212/193 196/236/193 197/220/193
f 175/215/194 174/213/194 189/221/194
f 182/214/556 197/220/556 198/223/556
f 176/217/196 175/215/196 190/222/196
f 183/216/557 198/223/557 199/225/557
f 177/203/558 176/217/558 191/224/558
f 184/218/199 199/225/199 200/227/199
f 178/204/559 177/203/559 192/226/559
f 185/219/201 200/227/201 201/229/201
f 179/206/202 178/204/202 193/228/202
f 186/205/203 201/229/203 202/231/203
f 180/208/560 179/206/560 194/230/560
f 180/208/561 195/232/561 196/236/561
f 174/213/208 173/210/208 188/234/208
f 200/227/209 215/253/209 216/237/209
f 194/230/210 193/228/210 208/238/210
f 201/229/211 216/237/211 217/240/211
f 195/232/562 194/230/562 209/239/562
f 195/232/563 210/241/563 211/245/563
f 189/221/216 188/234/216 203/243/216
f 196/236/217 211/245/217 212/247/217
f 190/222/218 189/221/218 204/246/218
f 197/220/219 212/247/219 213/249/219
f 191/224/220 190/222/220 205/248/220
f 198/223/221 213/249/221 214/251/221
f 192/226/222 191/224/222 206/250/222
f 199/225/223 214/251/223 215/253/223
f 193/228/224 192/226/224 207/252/224
f 205/248/225 204/246/225 219/254/225
f 212/247/226 227/270/226 228/256/226
f 206/250/227 205/248/227 220/255/227
f 213/249/564 228/256/564 229/258/564
f 207/252/565 206/250/565 221/257/565
f 214/251/230 229/258/230 230/260/230
f 208/238/231 207/252/231 222/259/231
f 215/253/232 230/260/232 231/262/232
f 209/239/233 208/238/233 223/261/233
f 216/237/234 231/262/234 232/264/234
f 210/241/235 209/239/235 224/263/235
f 210/241/238 225/265/238 226/269/238
f 204/246/239 203/243/239 218/267/239
f 211/245/240 226/269/240 227/270/240
f 224/263/241 223/261/241 238/271/241
f 231/262/566 246/287/566 247/273/566
f 225/265/567 224/263/567 239/272/567
f 225/265/568 240/274/568 241/278/568
f 219/254/569 218/267/569 233/276/569
f 226/269/248 241/278/248 242/280/248
f 220/255/249 219/254/249 234/279/249
f 227/270/250 242/280/250 243/282/250
f 221/257/251 220/255/251 235/281/251
f 228/256/252 243/282/252 244/284/252
f 222/259/253 221/257/253 236/283/253
f 229/258/254 244/284/254 245/286/254
f 223/261/255 222/259/255 237/285/255
f 230/260/256 245/286/256 246/287/256
f 243/282/257 242/280/257 257/288/257
f 235/281/258 250/304/258 251/290/258
f 244/284/259 243/282/259 258/289/259
f 236/283/260 251/290/260 252/292/260
f 245/286/261 244/284/261 259/291/261
f 237/285/262 252/292/262 253/294/262
f 246/287/263 245/286/263 260/293/263
f 238/271/264 253/294/264 254/296/264
f 247/273/570 246/287/570 261/295/570
f 239/272/571 254/296/571 255/298/571
f 241/278/572 240/274/572 255/298/572
f 233/276/573 248/300/573 249/303/573
f 242/280/271 241/278/271 256/302/271
f 234/279/272 249/303/272 250/304/272
f 262/297/273 261/295/273 276/305/273
f 254/296/274 269/321/274 270/307/274
f 256/302/277 255/298/277 270/307/277
f 248/300/278 263/309/278 264/312/278
f 257/288/279 256/302/279 271/311/279
f 249/303/280 264/312/280 265/314/280
f 258/289/281 257/288/281 272/313/281
f 250/304/282 265/314/282 266/316/282
f 259/291/574 258/289/574 273/315/574
f 251/290/575 266/316/575 267/318/575
f 260/293/285 259/291/285 274/317/285
f 252/292/286 267/318/286 268/320/286
f 261/295/287 260/293/287 275/319/287
f 253/294/288 268/320/288 269/321/288
f 274/317/289 273/315/289 288/322/289
f 266/316/290 281/338/290 282/324/290
f 275/319/291 274/317/291 289/323/291
f 267/318/292 282/324/292 283/326/292
f 276/305/293 275/319/293 290/325/293
f 268/320/294 283/326/294 284/328/294
f 277/306/295 276/305/295 291/327/295
f 269/321/576 284/328/576 285/330/576
f 271/311/577 270/307/577 285/330/577
f 263/309/300 278/332/300 279/335/300
f 272/313/301 271/311/301 286/334/301
f 264/312/302 279/335/302 280/337/302
f 273/315/303 272/313/303 287/336/303
f 265/314/304 280/337/304 281/338/304
f 286/334/578 285/330/578 300/343/578
f 278/332/308 293/340/308 294/345/308
f 287/336/309 286/334/309 301/344/309
f 279/335/310 294/345/310 295/347/310
f 288/322/579 287/336/579 302/346/579
f 280/337/312 295/347/312 296/349/312
f 289/323/580 288/322/580 303/348/580
f 281/338/314 296/349/314 297/351/314
f 290/325/315 289/323/315 304/350/315
f 282/324/581 297/351/581 298/353/581
f 291/327/317 290/325/317 305/352/317
f 283/326/318 298/353/318 299/355/318
f 292/329/319 291/327/319 306/354/319
f 284/328/582 299/355/582 300/343/582
f 296/349/321 312/372/321 313/356/321
f 305/352/322 304/350/322 320/357/322
f 297/351/323 313/356/323 314/359/323
f 306/354/324 305/352/324 321/358/324
f 298/353/325 314/359/325 315/361/325
f 307/342/326 306/354/326 322/360/326
f 299/355/583 315/361/583 316/363/583
f 301/344/584 300/343/584 316/363/584
f 293/340/331 309/365/331 310/368/331
f 302/346/332 301/344/332 317/367/332
f 294/345/333 310/368/333 311/370/333
f 303/348/334 302/346/334 318/369/334
f 295/347/335 311/370/335 312/372/335
f 304/350/336 303/348/336 319/371/336
f 317/367/337 316/363/337 331/373/337
f 309/365/338 324/388/338 325/375/338
f 318/369/339 317/367/339 332/374/339
f 310/368/585 325/375/585 326/377/585
f 319/371/586 318/369/586 333/376/586
f 311/370/342 326/377/342 327/379/342
f 320/357/343 319/371/343 334/378/343
f 312/372/344 327/379/344 328/381/344
f 321/358/345 320/357/345 335/380/345
f 313/356/587 328/381/587 329/383/587
f 322/360/588 321/358/588 336/382/588
f 314/359/348 329/383/348 330/385/348
f 323/362/349 322/360/349 337/384/349
f 315/361/350 330/385/350 331/373/350
f 336/382/589 335/380/589 350/390/589
f 328/381/354 343/406/354 344/392/354
f 337/384/355 336/382/355 351/391/355
f 329/383/356 344/392/356 345/394/356
f 338/386/357 337/384/357 352/393/357
f 330/385/590 345/394/590 346/396/590
f 332/374/591 331/373/591 346/396/591
f 324/388/362 339/398/362 340/401/362
f 333/376/363 332/374/363 347/400/363
f 325/375/364 340/401/364 341/403/364
f 334/378/365 333/376/365 348/402/365
f 326/377/592 341/403/592 342/405/592
f 335/380/367 334/378/367 349/404/367
f 327/379/368 342/405/368 343/406/368
f 339/398/369 354/422/369 355/407/369
f 348/402/593 347/400/593 362/408/593
f 340/401/594 355/407/594 356/410/594
f 349/404/372 348/402/372 363/409/372
f 341/403/595 356/410/595 357/412/595
f 350/390/374 349/404/374 364/411/374
f 342/405/375 357/412/375 358/414/375
f 351/391/596 350/390/596 365/413/596
f 343/406/377 358/414/377 359/416/377
f 352/393/597 351/391/597 366/415/597
f 344/392/598 359/416/598 360/418/598
f 353/395/380 352/393/380 367/417/380
f 345/394/381 360/418/381 361/420/381
f 347/400/384 346/396/384 361/420/384
f 359/424/385 358/454/385 373/425/385
f 366/427/599 381/455/599 382/428/599
f 360/430/600 359/424/600 374/426/600
f 367/429/388 382/428/388 383/432/388
f 361/434/389 360/430/389 375/431/389
f 361/434/392 376/435/392 377/440/392
f 355/442/393 354/436/393 369/438/393
f 362/441/601 377/440/601 378/444/601
f 356/446/602 355/442/602 370/443/602
f 363/445/396 378/444/396 379/448/396
f 357/450/603 356/446/603 371/447/603
f 364/449/398 379/448/398 380/452/398
f 358/454/399 357/450/399 372/451/399
f 365/453/604 380/452/604 381/455/604
f 377/440/401 392/472/401 393/456/401
f 371/447/402 370/443/402 385/457/402
f 378/444/403 393/456/403 394/459/403
f 372/451/605 371/447/605 386/458/605
f 379/448/405 394/459/405 395/461/405
f 373/425/406 372/451/406 387/460/406
f 380/452/606 395/461/606 396/463/606
f 374/426/408 373/425/408 388/462/408
f 381/455/409 396/463/409 397/465/409
f 375/431/410 374/426/410 389/464/410
f 382/428/411 397/465/411 398/467/411
f 376/435/607 375/431/607 390/466/607
f 376/435/608 391/468/608 392/472/608
f 370/443/416 369/438/416 384/470/416
f 396/463/609 411/489/609 412/473/609
f 390/466/418 389/464/418 404/474/418
f 397/465/419 412/473/419 413/476/419
f 391/468/420 390/466/420 405/475/420
f 391/468/423 406/477/423 407/481/423
f 385/457/424 384/470/424 399/479/424
f 392/472/425 407/481/425 408/483/425
f 386/458/610 385/457/610 400/482/610
f 393/456/427 408/483/427 409/485/427
f 387/460/428 386/458/428 401/484/428
f 394/459/429 409/485/429 410/487/429
f 388/462/430 387/460/430 402/486/430
f 395/461/431 410/487/431 411/489/431
f 389/464/432 388/462/432 403/488/432
f 408/483/433 423/506/433 424/490/433
f 402/486/434 401/484/434 416/491/434
f 409/485/435 424/490/435 425/493/435
f 403/488/436 402/486/436 417/492/436
f 410/487/437 425/493/437 426/495/437
f 404/474/438 403/488/438 418/494/438
f 411/489/439 426/495/439 427/497/439
f 405/475/440 404/474/440 419/496/440
f 412/473/441 427/497/441 428/499/441
f 406/477/611 405/475/611 420/498/611
f 406/477/612 421/500/612 422/504/612
f 400/482/446 399/479/446 414/502/446
f 407/481/447 422/504/447 423/506/447
f 401/484/448 400/482/448 415/505/448
f 427/497/449 442/523/449 443/507/449
f 421/500/613 420/498/613 435/508/613
f 421/500/614 436/509/614 437/513/614
f 415/505/454 414/502/454 429/511/454
f 422/504/455 437/513/455 438/515/455
f 416/491/456 415/505/456 430/514/456
f 423/506/615 438/515/615 439/517/615
f 417/492/458 416/491/458 431/516/458
f 424/490/616 439/517/616 440/519/616
f 418/494/460 417/492/460 432/518/460
f 425/493/461 440/519/461 441/521/461
f 419/496/617 418/494/617 433/520/617
f 426/495/463 441/521/463 442/523/463
f 420/498/464 419/496/464 434/522/464
f 432/518/465 431/516/465 446/524/465
f 439/517/466 454/540/466 455/526/466
f 433/520/467 432/518/467 447/525/467
f 440/519/468 455/526/468 456/528/468
f 434/522/469 433/520/469 448/527/469
f 441/521/470 456/528/470 457/530/470
f 435/508/471 434/522/471 449/529/471
f 442/523/472 457/530/472 458/532/472
f 436/509/618 435/508/618 450/531/618
f 436/509/619 451/533/619 452/537/619
f 430/514/477 429/511/477 444/535/477
f 437/513/478 452/537/478 453/539/478
f 431/516/479 430/514/479 445/538/479
f 438/515/480 453/539/480 454/540/480
f 451/533/481 450/531/481 465/541/481
f 451/533/484 466/542/484 467/547/484
f 445/538/485 444/535/485 459/544/485
f 452/537/486 467/547/486 468/549/486
f 446/524/487 445/538/487 460/548/487
f 453/539/488 468/549/488 469/551/488
f 447/525/489 446/524/489 461/550/489
f 454/540/620 469/551/620 470/553/620
f 448/527/621 447/525/621 462/552/621
f 455/526/492 470/553/492 471/555/492
f 449/529/493 448/527/493 463/554/493
f 456/528/494 471/555/494 472/557/494
f 450/531/495 449/529/495 464/556/495
f 457/530/496 472/557/496 473/546/496
f 469/551/497 6/32/497 479/4/497
f 463/554/498 462/552/498 476/3/498
f 470/553/499 479/4/499 480/9/499
f 464/556/500 463/554/500 2/8/500
f 471/555/501 480/9/501 481/13/501
f 465/541/502 464/556/502 477/12/502
f 472/557/622 481/13/622 482/17/622
f 466/542/623 465/541/623 3/16/623
f 466/542/624 4/20/624 5/25/624
f 460/548/625 459/544/625 474/21/625
f 467/547/509 5/25/509 478/29/509
f 461/550/510 460/548/510 475/28/510
f 468/549/511 478/29/511 6/32/511
f 462/552/512 461/550/512 1/1/512
